<svg version="1.1" id="Layer_1" xmlns="http://www.w3.org/2000/svg" xmlns:xlink="http://www.w3.org/1999/xlink" x="0px" y="0px"
	 width="100%" viewBox="0 0 199 208" enable-background="new 0 0 199 208" xml:space="preserve">
<path fill="#FDFFFF" opacity="1.000000" stroke="none" 
	d="
M122.000000,209.000000 
	C81.333336,209.000000 41.166672,209.000000 1.000005,209.000000 
	C1.000004,139.666672 1.000004,70.333344 1.000002,1.000015 
	C67.333321,1.000010 133.666641,1.000010 199.999969,1.000005 
	C199.999985,70.333321 199.999985,139.666641 200.000000,208.999969 
	C174.166672,209.000000 148.333328,209.000000 122.000000,209.000000 
M30.000795,100.000877 
	C30.000795,100.000877 29.963345,99.981636 29.225288,100.102722 
	C29.007124,100.943092 28.788960,101.783463 28.373985,103.383202 
	C27.954878,105.286560 27.232405,107.180519 27.173018,109.095032 
	C26.988010,115.059227 27.054121,121.031219 26.466133,127.227982 
	C25.952204,127.542816 25.438274,127.857643 24.376509,127.831772 
	C23.217030,126.568123 22.057550,125.304474 20.877321,123.423752 
	C20.348181,122.827065 19.819042,122.230377 19.074427,120.890030 
	C18.712099,118.253845 18.349773,115.617661 18.506872,112.787445 
	C18.837971,112.225349 19.169071,111.663261 19.500170,111.101166 
	C18.960636,111.187218 18.421101,111.273262 17.456701,111.225380 
	C17.180630,111.384552 17.012775,111.620674 16.369404,112.225044 
	C16.053648,113.189293 15.737892,114.153534 15.204105,115.921951 
	C15.303015,117.570015 15.401925,119.218071 15.336050,121.557487 
	C16.168072,123.116714 17.000095,124.675949 17.975080,126.912743 
	C23.934526,132.974792 29.893974,139.036835 36.046085,145.693405 
	C36.726780,146.042908 37.407471,146.392395 38.593315,147.208115 
	C40.345745,148.460510 42.030434,149.823074 43.860924,150.948502 
	C65.933281,164.518982 89.988022,172.964386 115.351433,177.489731 
	C131.422806,180.357193 147.698578,181.561417 164.460052,177.705185 
	C165.127274,177.281296 165.794510,176.857407 167.141479,176.354202 
	C168.405243,175.840149 169.669022,175.326096 171.551636,174.843002 
	C172.153748,174.322205 172.755844,173.801407 173.927399,172.932312 
	C179.322372,169.336884 181.216873,164.380402 179.800858,157.478668 
	C179.290054,156.869598 178.779251,156.260529 178.035721,155.183609 
	C177.704605,154.780624 177.373489,154.377625 176.828964,153.314926 
	C174.519775,151.788986 172.210587,150.263062 169.901398,148.737122 
	C169.551086,149.264664 169.200790,149.792206 168.850479,150.319733 
	C170.609222,151.612381 172.367950,152.905014 174.455414,154.901398 
	C176.988235,159.763199 175.492554,163.415894 170.360535,166.173233 
	C168.812286,167.045517 167.264023,167.917786 164.866150,168.848053 
	C147.765701,172.048828 130.894333,170.288315 113.956985,166.024628 
	C113.309967,166.026596 112.662949,166.028564 111.354164,166.032806 
	C110.919266,165.963638 110.484375,165.894470 110.100067,165.208099 
	C110.735497,164.436462 111.370926,163.664825 112.805023,162.878189 
	C113.860138,163.002075 114.915253,163.125977 116.082710,163.849136 
	C117.043686,163.940643 118.004654,164.032166 119.816574,164.034668 
	C129.581528,164.185532 139.369980,164.806335 149.103027,164.319519 
	C155.433548,164.002869 161.669632,162.050644 164.518631,156.688019 
	C161.303741,152.535660 158.838760,149.351883 156.502335,146.334152 
	C155.002472,147.101395 153.232239,148.006943 151.521973,148.023361 
	C151.533127,142.239120 151.774490,136.443665 151.492813,130.673706 
	C151.191498,124.501694 150.397186,118.353752 149.959885,111.613708 
	C149.340973,111.332268 148.722076,111.050827 147.336517,110.806564 
	C146.827545,110.799980 146.318588,110.793396 145.036667,110.524628 
	C143.700607,110.757828 142.364548,110.991035 141.020477,110.258644 
	C140.992493,104.433617 140.837051,98.605324 140.985809,92.784813 
	C141.070862,89.455963 140.026749,87.650894 136.236771,87.107140 
	C135.848389,84.060410 135.460007,81.013680 135.048538,77.182228 
	C134.385071,76.453911 133.837112,75.548462 133.038361,75.027596 
	C129.363892,72.631516 125.595421,74.624222 121.198029,74.526329 
	C120.789543,70.596626 120.520714,66.644905 119.906372,62.747650 
	C119.647339,61.104351 118.659714,59.575905 117.422676,57.707363 
	C115.935486,56.455627 114.448296,55.203896 112.201080,53.970291 
	C111.438019,54.001953 110.674965,54.033619 109.800301,53.190819 
	C109.658058,51.171768 109.515808,49.152721 109.698891,46.460495 
	C109.574066,45.296566 109.449234,44.132633 109.356819,42.417290 
	C109.277557,42.251102 109.198288,42.084919 108.706635,41.283924 
	C107.473129,41.192326 106.239616,41.100727 104.523155,40.747936 
	C104.058449,40.479839 103.593742,40.211739 103.068672,39.026100 
	C102.712318,34.381195 102.355957,29.736288 101.803162,24.415688 
	C101.159485,24.217175 100.515800,24.018661 99.699516,23.684824 
	C99.699516,23.684824 99.491295,23.615919 99.481094,23.004555 
	C99.359306,22.616375 99.237511,22.228195 99.081123,20.976393 
	C98.966110,18.518473 98.851105,16.060555 98.736092,13.602634 
	C98.165230,13.608976 97.594360,13.615318 97.023491,13.621661 
	C97.023491,16.424461 97.023491,19.227262 96.692574,22.390030 
	C96.438255,22.600403 96.154709,22.758301 95.184425,22.909962 
	C94.408035,23.530174 93.631645,24.150389 92.081032,24.962181 
	C91.446724,26.456034 90.462631,27.903017 90.254822,29.454016 
	C89.883392,32.226044 91.107475,36.388374 89.664238,37.613987 
	C85.739334,40.947048 87.179649,44.854816 87.064056,48.551910 
	C86.830887,56.008602 86.977806,63.477177 86.464462,71.060020 
	C86.301010,71.115059 86.137558,71.170097 85.755585,70.628723 
	C85.437981,69.853020 85.120377,69.077324 84.904121,67.408485 
	C86.173416,60.055157 81.754570,55.235382 77.235870,50.521145 
	C77.097946,50.377258 75.719963,51.422001 74.170776,51.961060 
	C68.963791,53.041306 66.186119,55.805763 66.901497,61.544926 
	C67.097473,63.117146 66.062737,64.842773 64.845543,66.375801 
	C59.786896,66.452385 60.087696,62.495266 59.875515,60.699448 
	C57.793362,62.521721 55.134216,64.612930 52.793854,67.014763 
	C51.872795,67.960022 51.663815,69.599136 50.892273,71.687027 
	C50.808197,72.749626 50.724121,73.812233 50.003269,75.114250 
	C46.488503,77.293846 45.817841,80.481407 45.948318,84.450653 
	C46.216084,92.596321 45.966873,100.758980 45.517345,109.040085 
	C45.517345,109.040085 45.086491,109.067986 44.383659,108.954811 
	C43.675392,108.934669 42.967125,108.914520 42.132931,108.089752 
	C41.142231,104.024345 41.914597,98.627937 34.385334,98.805229 
	C33.582703,98.843277 32.780067,98.881317 31.661762,98.451698 
	C31.101645,98.955635 30.541527,99.459572 30.000795,100.000877 
M71.909859,173.833267 
	C72.634872,173.967285 73.359894,174.101318 74.870773,174.614227 
	C76.908936,174.792374 78.947105,174.970520 81.390594,175.682404 
	C83.031807,176.012558 84.673019,176.342728 86.314232,176.672897 
	C86.417976,176.128983 86.521721,175.585083 86.625458,175.041183 
	C84.711571,174.535370 82.797684,174.029541 80.206047,173.191528 
	C58.382214,166.001816 38.376148,155.249634 19.644060,141.939499 
	C33.212887,158.688202 50.494125,169.142868 71.909859,173.833267 
z"/>
<path fill="#31D6EF" opacity="1.000000" stroke="none" 
	d="
M35.853420,145.098877 
	C29.893974,139.036835 23.934526,132.974792 17.935957,126.210434 
	C17.098167,123.960800 16.299501,122.413467 15.500835,120.866135 
	C15.401925,119.218071 15.303015,117.570015 15.617828,115.410660 
	C16.338747,113.910828 16.645943,112.922287 16.953136,111.933746 
	C17.012775,111.620674 17.180630,111.384552 17.657654,111.563881 
	C17.901554,112.262077 17.944502,112.621780 17.987448,112.981476 
	C18.349773,115.617661 18.712099,118.253845 19.116318,121.605545 
	C19.738163,122.894318 20.318117,123.467567 20.898071,124.040825 
	C22.057550,125.304474 23.217030,126.568123 24.752697,128.262329 
	C25.712143,129.137375 26.295404,129.581894 27.059258,130.295898 
	C27.800550,130.886795 28.361250,131.208206 28.971197,131.670410 
	C29.139610,131.982483 29.302349,132.083252 29.720224,132.397156 
	C43.614281,143.778824 59.850033,149.838043 76.384819,156.093735 
	C81.152466,157.519928 85.552238,158.885513 90.196472,160.494995 
	C92.981018,161.412567 95.521111,162.086258 98.444023,162.854675 
	C101.564316,163.603256 104.301781,164.257095 107.230194,165.191040 
	C108.297256,165.589172 109.173370,165.707230 110.049477,165.825287 
	C110.484375,165.894470 110.919266,165.963638 111.885254,166.256027 
	C112.983009,166.487793 113.549683,166.496323 114.116356,166.504868 
	C130.894333,170.288315 147.765701,172.048828 165.664917,168.869049 
	C167.998276,167.989807 169.532867,167.089569 171.067459,166.189346 
	C175.492554,163.415894 176.988235,159.763199 174.778168,154.492279 
	C175.748077,154.046982 176.395218,154.010803 177.042374,153.974640 
	C177.373489,154.377625 177.704605,154.780624 178.090729,155.746460 
	C178.662491,156.904877 179.179260,157.500427 179.696030,158.095978 
	C181.216873,164.380402 179.322372,169.336884 173.305573,173.042786 
	C172.100082,173.706177 171.516434,174.259109 170.932785,174.812027 
	C169.669022,175.326096 168.405243,175.840149 166.483322,176.282379 
	C165.173294,176.641144 164.521423,177.071732 163.869553,177.502319 
	C147.698578,181.561417 131.422806,180.357193 115.351433,177.489731 
	C89.988022,172.964386 65.933281,164.518982 43.860924,150.948502 
	C42.030434,149.823074 40.345745,148.460510 38.264397,146.672089 
	C37.241459,145.790329 36.547440,145.444595 35.853420,145.098877 
z"/>
<path fill="#209D34" opacity="1.000000" stroke="none" 
	d="
M151.462006,148.912506 
	C153.232239,148.006943 155.002472,147.101395 156.502335,146.334152 
	C158.838760,149.351883 161.303741,152.535660 164.518631,156.688019 
	C161.669632,162.050644 155.433548,164.002869 149.103027,164.319519 
	C139.369980,164.806335 129.581528,164.185532 119.196144,163.805420 
	C117.707268,163.467407 116.838814,163.358627 115.970367,163.249863 
	C114.915253,163.125977 113.860138,163.002075 112.167999,162.625275 
	C110.379631,162.201675 109.228279,162.031006 107.783447,161.720886 
	C106.668610,161.333115 105.847260,161.084824 104.989792,160.546051 
	C104.276451,160.231476 103.599228,160.207397 102.554001,160.195770 
	C101.469872,160.048462 100.753738,159.888702 99.987366,159.440643 
	C99.560196,158.538910 99.183266,157.925476 99.018608,157.657501 
	C100.727219,157.131607 102.375648,156.624237 104.277542,156.003479 
	C104.775665,155.616791 105.020325,155.343491 105.653107,155.130508 
	C109.688988,155.182678 113.336754,155.174530 117.360580,155.155136 
	C118.883377,154.736954 120.030098,154.330048 121.443108,153.786835 
	C122.801048,152.472809 123.892708,151.295105 125.286743,150.269135 
	C126.154671,150.769745 126.720230,151.118591 127.435326,151.665726 
	C128.082230,151.961884 128.579590,152.059753 129.290482,152.391983 
	C131.094070,152.454208 132.684143,152.282074 134.445923,152.116638 
	C134.617630,152.123352 134.958755,152.081497 135.321625,152.039246 
	C138.285675,149.178604 140.864090,146.324799 145.329895,146.243347 
	C145.848831,148.590042 146.088272,150.662735 146.327713,152.735443 
	C146.743805,152.995255 147.159882,153.255066 147.575974,153.514877 
	C148.871323,151.980759 150.166672,150.446625 151.462006,148.912506 
z"/>
<path fill="#6CD7EA" opacity="1.000000" stroke="none" 
	d="
M95.841942,22.863724 
	C96.154709,22.758301 96.438255,22.600403 97.208237,22.207714 
	C98.187843,21.963606 98.651779,21.901812 99.115723,21.840015 
	C99.237511,22.228195 99.359306,22.616375 99.058105,23.494427 
	C98.066833,25.024343 97.028778,26.057222 97.012779,27.105694 
	C96.948685,31.307920 97.201546,35.514980 96.946365,39.812927 
	C96.027374,39.946449 95.499214,39.987301 94.569260,40.099983 
	C93.768044,41.992233 93.029747,43.810932 93.020508,45.633324 
	C92.898537,69.695168 92.879166,93.757530 92.428497,117.855087 
	C91.332947,116.493820 90.065201,115.106087 90.043594,113.699226 
	C89.853638,101.334572 90.007477,88.963730 89.723839,76.602409 
	C89.680069,74.695152 87.929298,72.827057 86.967957,70.940849 
	C86.977806,63.477177 86.830887,56.008602 87.064056,48.551910 
	C87.179649,44.854816 85.739334,40.947048 89.664238,37.613987 
	C91.107475,36.388374 89.883392,32.226044 90.254822,29.454016 
	C90.462631,27.903017 91.446724,26.456034 92.799873,24.921555 
	C94.293121,24.208527 95.067528,23.536125 95.841942,22.863724 
z"/>
<path fill="#BDF1F9" opacity="1.000000" stroke="none" 
	d="
M112.961113,53.952164 
	C114.448296,55.203896 115.935486,56.455627 117.711548,58.320473 
	C118.001358,68.881767 117.957748,78.830338 118.045410,88.777756 
	C118.060692,90.511742 118.629120,92.240852 118.986237,94.441795 
	C118.980064,103.639404 118.929726,112.367439 118.465408,121.069267 
	C116.372551,120.932541 114.693665,120.822014 112.755493,120.500145 
	C111.601883,120.217979 110.707542,120.147141 109.748611,119.608780 
	C109.756203,114.428299 109.828400,109.715340 110.217056,105.276016 
	C110.817741,109.821487 111.101952,114.093330 111.386169,118.365173 
	C111.911148,118.345688 112.436134,118.326210 112.961113,118.306732 
	C112.961113,96.855209 112.961113,75.403687 112.961113,53.952164 
z"/>
<path fill="#44DAF1" opacity="1.000000" stroke="none" 
	d="
M80.985260,175.148651 
	C78.947105,174.970520 76.908936,174.792374 74.327866,174.170898 
	C73.026657,173.605515 72.268349,173.483475 71.510048,173.361435 
	C50.494125,169.142868 33.212887,158.688202 19.644060,141.939499 
	C38.376148,155.249634 58.382214,166.001816 80.570160,173.625977 
	C80.951271,174.423172 80.968269,174.785919 80.985260,175.148651 
z"/>
<path fill="#0A3D5D" opacity="1.000000" stroke="none" 
	d="
M151.491989,148.467926 
	C150.166672,150.446625 148.871323,151.980759 147.575974,153.514877 
	C147.159882,153.255066 146.743805,152.995255 146.327713,152.735443 
	C146.088272,150.662735 145.848831,148.590042 145.338135,145.902863 
	C145.708054,143.871826 146.349258,142.455261 147.135223,140.814270 
	C146.201050,140.336151 145.122131,140.082443 143.931458,139.643738 
	C143.634567,139.227600 143.402786,139.061462 143.098343,138.719604 
	C143.072296,138.478867 142.994904,138.000809 143.036423,137.626038 
	C143.343460,134.196533 143.608994,131.141785 143.956848,127.712769 
	C144.324722,125.860344 144.610260,124.382187 144.919373,122.474579 
	C145.231857,118.292358 145.520737,114.539581 145.809616,110.786819 
	C146.318588,110.793396 146.827545,110.799980 147.830872,111.060448 
	C148.822830,111.607986 149.320450,111.901642 149.818054,112.195297 
	C150.397186,118.353752 151.191498,124.501694 151.492813,130.673706 
	C151.774490,136.443665 151.533127,142.239120 151.491989,148.467926 
z"/>
<path fill="#6791A4" opacity="1.000000" stroke="none" 
	d="
M109.373566,47.133671 
	C109.515808,49.152721 109.658058,51.171768 109.777588,53.917934 
	C109.845940,55.762184 109.937012,56.879322 109.996552,58.250889 
	C110.009094,58.670456 110.053177,58.835594 110.033554,59.465637 
	C109.955238,61.752197 109.951698,63.574013 109.924240,65.395462 
	C109.749786,76.968193 109.570053,88.540855 109.073006,100.087990 
	C107.495193,99.385292 106.236435,98.708138 104.987633,97.559196 
	C104.994934,84.395042 104.992279,71.702675 104.998070,59.001736 
	C105.006516,58.993160 105.023109,58.975712 105.411469,58.929665 
	C106.536263,57.071838 107.411484,55.301769 107.971931,53.437096 
	C108.589836,51.381248 108.918762,49.238541 109.373566,47.133671 
z"/>
<path fill="#BBF1F9" opacity="1.000000" stroke="none" 
	d="
M65.592766,66.498001 
	C66.062737,64.842773 67.097473,63.117146 66.901497,61.544926 
	C66.186119,55.805763 68.963791,53.041306 74.854019,52.237320 
	C75.694374,59.019680 75.851479,65.525780 76.003983,72.254608 
	C75.999382,72.477341 75.916336,72.915100 75.570099,72.925079 
	C74.081825,73.814445 72.939781,74.693832 71.534332,75.905853 
	C70.895844,80.173935 70.520760,84.109398 69.810242,88.044708 
	C69.251488,88.056541 69.028183,88.068520 68.627075,88.058083 
	C68.449257,88.035675 68.098282,87.962914 68.068161,87.499489 
	C67.930153,82.040909 67.822273,77.045761 67.758865,71.751930 
	C67.291801,70.935577 66.780281,70.417892 66.219086,69.551117 
	C65.977203,68.300682 65.784988,67.399345 65.592766,66.498001 
z"/>
<path fill="#D4F6FB" opacity="1.000000" stroke="none" 
	d="
M109.392059,100.113533 
	C109.570053,88.540855 109.749786,76.968193 109.924240,65.395462 
	C109.951698,63.574013 109.955238,61.752197 110.189407,59.368164 
	C110.282021,58.536003 110.155052,58.266228 110.028084,57.996456 
	C109.937012,56.879322 109.845940,55.762184 109.833389,54.355164 
	C110.674965,54.033619 111.438019,54.001953 112.581100,53.961227 
	C112.961113,75.403687 112.961113,96.855209 112.961113,118.306732 
	C112.436134,118.326210 111.911148,118.345688 111.386169,118.365173 
	C111.101952,114.093330 110.817741,109.821487 110.147873,104.869324 
	C109.638832,102.830513 109.515442,101.472023 109.392059,100.113533 
z"/>
<path fill="#BBECF5" opacity="1.000000" stroke="none" 
	d="
M136.463852,87.976234 
	C140.026749,87.650894 141.070862,89.455963 140.985809,92.784813 
	C140.837051,98.605324 140.992493,104.433617 141.029938,111.118958 
	C140.626709,114.383720 140.214020,116.788162 139.672760,119.487312 
	C139.563156,121.061134 139.582138,122.340248 139.264999,123.694702 
	C138.031143,123.700867 137.133408,123.631699 136.233826,123.130524 
	C136.131775,114.520027 136.031586,106.341545 135.984024,97.695587 
	C135.995514,94.146011 135.954346,91.063904 136.050812,87.977142 
	C136.188461,87.972496 136.463852,87.976234 136.463852,87.976234 
z"/>
<path fill="#46ADC4" opacity="1.000000" stroke="none" 
	d="
M45.086491,109.067986 
	C45.086491,109.067986 45.517345,109.040085 46.090630,109.026718 
	C48.040154,108.640030 49.416393,108.266708 51.183495,108.062302 
	C54.412704,108.454300 57.251053,108.677368 60.467522,108.989120 
	C61.563450,111.197739 62.700119,113.281578 62.886810,115.447296 
	C63.092903,117.838196 63.060402,119.956253 65.572647,120.765793 
	C64.835793,120.887749 64.409103,120.923744 63.595150,120.956108 
	C62.182392,120.964844 61.156898,120.977211 60.307579,120.700035 
	C63.011242,114.363472 61.118504,110.998482 55.176228,110.987076 
	C53.363205,110.983589 51.550137,111.006317 49.473587,110.896271 
	C47.434315,111.412033 45.658546,112.048569 43.556175,112.677856 
	C42.793896,112.730713 42.358215,112.790810 41.541611,112.912392 
	C39.162395,113.215683 37.164101,113.457497 35.124252,113.253510 
	C35.118179,108.169106 35.153660,103.530502 35.189144,98.891891 
	C41.914597,98.627937 41.142231,104.024345 42.241928,108.802147 
	C43.262779,109.365692 44.174637,109.216843 45.086491,109.067986 
z"/>
<path fill="#B7EEF7" opacity="1.000000" stroke="none" 
	d="
M50.792625,107.893387 
	C49.416393,108.266708 48.040154,108.640030 46.297195,108.964005 
	C45.966873,100.758980 46.216084,92.596321 45.948318,84.450653 
	C45.817841,80.481407 46.488503,77.293846 50.445557,75.339226 
	C50.953243,76.047119 51.018635,76.530037 51.016727,77.475723 
	C50.931267,83.285316 50.913105,88.632133 50.830357,94.441330 
	C50.774723,99.233589 50.783676,103.563484 50.792625,107.893387 
z"/>
<path fill="#204F6D" opacity="1.000000" stroke="none" 
	d="
M34.787239,98.848557 
	C35.153660,103.530502 35.118179,108.169106 35.057899,113.700188 
	C35.000088,116.060120 34.967072,117.527588 34.539368,118.992561 
	C32.593037,118.822479 31.041388,118.654884 29.223763,118.458565 
	C29.070827,121.946663 28.929930,125.160194 28.536034,128.247696 
	C27.862974,127.747833 27.442913,127.374008 27.022852,127.000183 
	C27.054121,121.031219 26.988010,115.059227 27.173018,109.095032 
	C27.232405,107.180519 27.954878,105.286560 28.732204,102.830658 
	C29.381395,101.512619 29.672369,100.747124 29.963345,99.981636 
	C29.963345,99.981636 30.000795,100.000877 30.292700,99.958389 
	C31.048882,99.583717 31.513157,99.251541 31.977436,98.919357 
	C32.780067,98.881317 33.582703,98.843277 34.787239,98.848557 
z"/>
<path fill="#3A97B0" opacity="1.000000" stroke="none" 
	d="
M86.716209,71.000435 
	C87.929298,72.827057 89.680069,74.695152 89.723839,76.602409 
	C90.007477,88.963730 89.853638,101.334572 90.043594,113.699226 
	C90.065201,115.106087 91.332947,116.493820 92.683464,118.000778 
	C93.569275,118.419708 93.794495,118.728279 93.965714,119.357635 
	C92.559586,119.763618 91.207474,119.848824 89.728844,119.589264 
	C89.080750,115.833488 88.559181,112.422462 88.051407,108.572792 
	C88.042877,106.090027 88.020561,104.045921 88.011833,101.534630 
	C88.011490,97.146606 88.224068,93.203804 87.847313,89.318146 
	C87.732430,88.133316 85.995514,87.105766 84.786896,85.901268 
	C84.297997,85.612411 84.106171,85.364609 83.999046,84.620644 
	C84.336166,80.454727 84.671089,76.721100 85.255714,72.979797 
	C85.661644,72.389801 85.817879,71.807465 85.974106,71.225136 
	C86.137558,71.170097 86.301010,71.115059 86.716209,71.000435 
z"/>
<path fill="#CAF2F8" opacity="1.000000" stroke="none" 
	d="
M76.008583,72.031876 
	C75.851479,65.525780 75.694374,59.019680 75.228699,52.213085 
	C75.719963,51.422001 77.097946,50.377258 77.235870,50.521145 
	C81.754570,55.235382 86.173416,60.055157 84.492813,67.830688 
	C82.767044,69.169861 81.452568,70.086838 79.957138,71.262985 
	C79.165092,71.655518 78.554008,71.788879 77.619354,71.906662 
	C76.866707,71.938011 76.437645,71.984940 76.008583,72.031876 
z"/>
<path fill="#5ACEE3" opacity="1.000000" stroke="none" 
	d="
M51.084026,77.012955 
	C51.018635,76.530037 50.953243,76.047119 50.763947,75.219513 
	C50.724121,73.812233 50.808197,72.749626 51.378838,71.140076 
	C56.666523,70.362160 61.467636,70.131187 66.268753,69.900215 
	C66.780281,70.417892 67.291801,70.935577 67.356110,71.736542 
	C65.248375,72.018867 63.587872,72.017914 61.494843,72.003250 
	C59.498581,72.088966 57.934841,72.188385 55.989540,72.312065 
	C55.989540,78.373596 55.871376,83.933777 56.114723,89.478096 
	C56.151970,90.326698 57.858410,91.102043 58.861687,92.293106 
	C58.953045,93.450325 58.975563,94.225700 58.690002,95.150429 
	C57.281048,96.500618 56.180172,97.701462 54.854412,99.147621 
	C54.083736,96.906425 53.567608,95.405479 53.038353,93.446396 
	C53.020283,88.928017 53.167858,84.858521 52.922157,80.812897 
	C52.843262,79.513832 51.726151,78.277817 51.084026,77.012955 
M52.481876,72.596687 
	C52.481876,72.596687 52.410244,72.478859 52.481876,72.596687 
z"/>
<path fill="#7AD4E4" opacity="1.000000" stroke="none" 
	d="
M135.071625,77.966949 
	C135.460007,81.013680 135.848389,84.060410 136.350311,87.541687 
	C136.463852,87.976234 136.188461,87.972496 135.649353,88.003128 
	C134.409088,89.054413 133.229950,90.020111 133.105011,91.106987 
	C132.833984,93.464989 133.101791,95.884926 133.120193,98.649536 
	C133.016663,100.005951 132.942245,100.992348 132.544708,101.984573 
	C131.787567,102.007523 131.353516,102.024651 130.720062,101.907242 
	C130.299362,101.534187 130.131210,101.262733 129.858276,100.707657 
	C129.140457,100.301369 128.580612,100.145782 128.011658,99.603455 
	C127.949707,98.186890 127.896835,97.157074 128.249115,96.038734 
	C129.438232,94.539001 130.793777,93.168579 130.897934,91.708855 
	C131.198685,87.493813 130.995331,83.242805 131.226730,78.730118 
	C132.666245,78.291855 133.868927,78.129402 135.071625,77.966949 
z"/>
<path fill="#3E879F" opacity="1.000000" stroke="none" 
	d="
M97.337196,39.720253 
	C97.201546,35.514980 96.948685,31.307920 97.012779,27.105694 
	C97.028778,26.057222 98.066833,25.024343 99.063210,23.800110 
	C99.491295,23.615919 99.699516,23.684824 99.929535,24.056952 
	C100.772896,24.649847 101.386246,24.870615 101.999596,25.091383 
	C102.355957,29.736288 102.712318,34.381195 102.852089,39.464233 
	C102.635506,39.902363 102.140549,39.927071 101.789757,39.899502 
	C100.973793,39.871872 100.508629,39.871807 99.704292,39.833660 
	C98.689148,39.770470 98.013176,39.745361 97.337196,39.720253 
z"/>
<path fill="#D1F4FA" opacity="1.000000" stroke="none" 
	d="
M118.942062,93.972214 
	C118.629120,92.240852 118.060692,90.511742 118.045410,88.777756 
	C117.957748,78.830338 118.001358,68.881767 118.001854,58.464417 
	C118.659714,59.575905 119.647339,61.104351 119.906372,62.747650 
	C120.520714,66.644905 120.789543,70.596626 121.548065,75.107162 
	C121.849800,76.438911 121.801498,77.189819 121.441376,78.164146 
	C120.688461,83.528008 120.247368,88.668442 119.594231,93.870941 
	C119.382187,93.932999 118.942062,93.972214 118.942062,93.972214 
z"/>
<path fill="#55BDD2" opacity="1.000000" stroke="none" 
	d="
M66.219086,69.551117 
	C61.467636,70.131187 56.666523,70.362160 51.497986,70.757706 
	C51.663815,69.599136 51.872795,67.960022 52.793854,67.014763 
	C55.134216,64.612930 57.793362,62.521721 59.875515,60.699448 
	C60.087696,62.495266 59.786896,66.452385 65.219154,66.436905 
	C65.784988,67.399345 65.977203,68.300682 66.219086,69.551117 
z"/>
<path fill="#6791A4" opacity="1.000000" stroke="none" 
	d="
M109.119019,41.918732 
	C109.198288,42.084919 109.277557,42.251102 108.890778,42.703484 
	C105.833733,42.748211 104.886322,43.943398 104.972687,46.503548 
	C105.112785,50.656776 105.018471,54.817913 105.023109,58.975712 
	C105.023109,58.975712 105.006516,58.993160 104.650604,58.997063 
	C103.599106,59.004162 102.903511,59.007355 102.053345,58.799385 
	C101.637634,58.364677 101.376488,58.141136 101.129181,57.611305 
	C101.136917,56.896336 101.130814,56.487652 101.353676,55.876610 
	C101.641747,55.086056 101.700851,54.497856 101.813599,53.558937 
	C101.839134,52.501438 101.811028,51.794655 101.858902,50.728127 
	C101.885147,49.883095 101.835403,49.397816 101.823181,48.609203 
	C101.836433,47.899860 101.812172,47.493843 101.863373,46.728325 
	C101.892845,45.883446 101.846855,45.398075 101.839355,44.609047 
	C101.859276,43.898407 101.840706,43.491425 101.909119,42.831524 
	C102.040588,42.405930 102.085068,42.233261 102.495056,42.045971 
	C103.591217,41.995083 104.321877,41.958809 105.457039,41.941902 
	C106.947365,41.947090 108.033188,41.932911 109.119019,41.918732 
z"/>
<path fill="#4095AE" opacity="1.000000" stroke="none" 
	d="
M139.801331,119.192604 
	C140.214020,116.788162 140.626709,114.383720 141.033951,111.601761 
	C142.364548,110.991035 143.700607,110.757828 145.423141,110.655716 
	C145.520737,114.539581 145.231857,118.292358 144.629471,122.366356 
	C142.811096,121.522591 141.306213,120.357597 139.801331,119.192604 
z"/>
<path fill="#7F99A9" opacity="1.000000" stroke="none" 
	d="
M105.411469,58.929665 
	C105.018471,54.817913 105.112785,50.656776 104.972687,46.503548 
	C104.886322,43.943398 105.833733,42.748211 108.874573,42.979187 
	C109.449234,44.132633 109.574066,45.296566 109.536224,46.797081 
	C108.918762,49.238541 108.589836,51.381248 107.971931,53.437096 
	C107.411484,55.301769 106.536263,57.071838 105.411469,58.929665 
z"/>
<path fill="#76CADC" opacity="1.000000" stroke="none" 
	d="
M121.753197,77.940727 
	C121.801498,77.189819 121.849800,76.438911 121.879684,75.311264 
	C125.595421,74.624222 129.363892,72.631516 133.038361,75.027596 
	C133.837112,75.548462 134.385071,76.453911 135.060089,77.574585 
	C133.868927,78.129402 132.666245,78.291855 130.811859,78.727165 
	C128.775757,78.999138 127.391335,78.998253 125.758301,78.718414 
	C124.257523,78.273209 123.005356,78.106972 121.753197,77.940727 
z"/>
<path fill="#69E1F3" opacity="1.000000" stroke="none" 
	d="
M176.935669,153.644775 
	C176.395218,154.010803 175.748077,154.046982 174.613800,154.140411 
	C172.367950,152.905014 170.609222,151.612381 168.850479,150.319733 
	C169.200790,149.792206 169.551086,149.264664 169.901398,148.737122 
	C172.210587,150.263062 174.519775,151.788986 176.935669,153.644775 
z"/>
<path fill="#3F748D" opacity="1.000000" stroke="none" 
	d="
M80.138100,71.003815 
	C81.452568,70.086838 82.767044,69.169861 84.442139,68.277252 
	C85.120377,69.077324 85.437981,69.853020 85.864853,70.926926 
	C85.817879,71.807465 85.661644,72.389801 85.046371,72.716217 
	C83.104256,71.974815 81.621178,71.489319 80.138100,71.003815 
z"/>
<path fill="#69E1F3" opacity="1.000000" stroke="none" 
	d="
M81.187927,175.415527 
	C80.968269,174.785919 80.951271,174.423172 80.909035,173.792084 
	C82.797684,174.029541 84.711571,174.535370 86.625458,175.041183 
	C86.521721,175.585083 86.417976,176.128983 86.314232,176.672897 
	C84.673019,176.342728 83.031807,176.012558 81.187927,175.415527 
z"/>
<path fill="#BBF1F9" opacity="1.000000" stroke="none" 
	d="
M99.098419,21.408205 
	C98.651779,21.901812 98.187843,21.963606 97.373695,22.027733 
	C97.023491,19.227262 97.023491,16.424461 97.023491,13.621661 
	C97.594360,13.615318 98.165230,13.608976 98.736092,13.602634 
	C98.851105,16.060555 98.966110,18.518473 99.098419,21.408205 
z"/>
<path fill="#C4EFE6" opacity="1.000000" stroke="none" 
	d="
M108.076920,161.860321 
	C109.228279,162.031006 110.379631,162.201675 111.768669,162.632782 
	C111.370926,163.664825 110.735497,164.436462 110.074768,165.516693 
	C109.173370,165.707230 108.297256,165.589172 107.358765,164.890762 
	C107.556564,163.493713 107.816742,162.677017 108.076920,161.860321 
z"/>
<path fill="#69E1F3" opacity="1.000000" stroke="none" 
	d="
M15.418443,121.211807 
	C16.299501,122.413467 17.098167,123.960800 17.864475,125.871658 
	C17.000095,124.675949 16.168072,123.116714 15.418443,121.211807 
z"/>
<path fill="#C5DBE2" opacity="1.000000" stroke="none" 
	d="
M26.744492,127.114082 
	C27.442913,127.374008 27.862974,127.747833 28.609194,128.459503 
	C29.147394,129.014038 29.314289,129.261246 29.309177,129.672211 
	C29.182322,129.805481 28.927788,130.071228 28.587481,130.052277 
	C27.791004,130.031006 27.334833,130.028702 26.878664,130.026398 
	C26.295404,129.581894 25.712143,129.137375 25.026615,128.432678 
	C25.438274,127.857643 25.952204,127.542816 26.744492,127.114082 
z"/>
<path fill="#69E1F3" opacity="1.000000" stroke="none" 
	d="
M170.713989,166.181290 
	C169.532867,167.089569 167.998276,167.989807 166.089722,168.840057 
	C167.264023,167.917786 168.812286,167.045517 170.713989,166.181290 
z"/>
<path fill="#C4EFE6" opacity="1.000000" stroke="none" 
	d="
M116.026535,163.549500 
	C116.838814,163.358627 117.707268,163.467407 118.770676,163.849930 
	C118.004654,164.032166 117.043686,163.940643 116.026535,163.549500 
z"/>
<path fill="#69E1F3" opacity="1.000000" stroke="none" 
	d="
M18.247160,112.884460 
	C17.944502,112.621780 17.901554,112.262077 17.870087,111.630844 
	C18.421101,111.273262 18.960636,111.187218 19.500170,111.101166 
	C19.169071,111.663261 18.837971,112.225349 18.247160,112.884460 
z"/>
<path fill="#5FA7BB" opacity="1.000000" stroke="none" 
	d="
M105.052544,41.922539 
	C104.321877,41.958809 103.591217,41.995083 102.449799,41.690884 
	C102.072884,40.875965 102.106712,40.401520 102.140549,39.927071 
	C102.140549,39.927071 102.635506,39.902363 102.882271,39.923004 
	C103.593742,40.211739 104.058449,40.479839 104.773331,41.107010 
	C105.023506,41.466087 105.052544,41.922539 105.052544,41.922539 
z"/>
<path fill="#69E1F3" opacity="1.000000" stroke="none" 
	d="
M16.661270,112.079391 
	C16.645943,112.922287 16.338747,113.910828 15.726844,115.008575 
	C15.737892,114.153534 16.053648,113.189293 16.661270,112.079391 
z"/>
<path fill="#BBF1F9" opacity="1.000000" stroke="none" 
	d="
M95.513184,22.886843 
	C95.067528,23.536125 94.293121,24.208527 93.186981,24.825766 
	C93.631645,24.150389 94.408035,23.530174 95.513184,22.886843 
z"/>
<path fill="#69E1F3" opacity="1.000000" stroke="none" 
	d="
M71.709953,173.597351 
	C72.268349,173.483475 73.026657,173.605515 73.934937,173.981445 
	C73.359894,174.101318 72.634872,173.967285 71.709953,173.597351 
z"/>
<path fill="#69E1F3" opacity="1.000000" stroke="none" 
	d="
M179.748444,157.787323 
	C179.179260,157.500427 178.662491,156.904877 178.207092,155.980392 
	C178.779251,156.260529 179.290054,156.869598 179.748444,157.787323 
z"/>
<path fill="#C4EFE6" opacity="1.000000" stroke="none" 
	d="
M114.036667,166.264740 
	C113.549683,166.496323 112.983009,166.487793 112.216133,166.254883 
	C112.662949,166.028564 113.309967,166.026596 114.036667,166.264740 
z"/>
<path fill="#8BB7C7" opacity="1.000000" stroke="none" 
	d="
M105.457039,41.941902 
	C105.052544,41.922539 105.023506,41.466087 105.014809,41.237610 
	C106.239616,41.100727 107.473129,41.192326 108.912827,41.601326 
	C108.033188,41.932911 106.947365,41.947090 105.457039,41.941902 
z"/>
<path fill="#69E1F3" opacity="1.000000" stroke="none" 
	d="
M171.242218,174.827515 
	C171.516434,174.259109 172.100082,173.706177 173.020844,173.216934 
	C172.755844,173.801407 172.153748,174.322205 171.242218,174.827515 
z"/>
<path fill="#69E1F3" opacity="1.000000" stroke="none" 
	d="
M35.949753,145.396149 
	C36.547440,145.444595 37.241459,145.790329 38.011818,146.438965 
	C37.407471,146.392395 36.726780,146.042908 35.949753,145.396149 
z"/>
<path fill="#69E1F3" opacity="1.000000" stroke="none" 
	d="
M164.164795,177.603760 
	C164.521423,177.071732 165.173294,176.641144 166.143448,176.322021 
	C165.794510,176.857407 165.127274,177.281296 164.164795,177.603760 
z"/>
<path fill="#69E1F3" opacity="1.000000" stroke="none" 
	d="
M20.887695,123.732285 
	C20.318117,123.467567 19.738163,122.894318 19.224056,121.977371 
	C19.819042,122.230377 20.348181,122.827065 20.887695,123.732285 
z"/>
<path fill="#BBECF5" opacity="1.000000" stroke="none" 
	d="
M149.888977,111.904503 
	C149.320450,111.901642 148.822830,111.607986 148.214203,111.041862 
	C148.722076,111.050827 149.340973,111.332268 149.888977,111.904503 
z"/>
<path fill="#C5DBE2" opacity="1.000000" stroke="none" 
	d="
M29.594316,100.042175 
	C29.672369,100.747124 29.381395,101.512619 28.830608,102.450974 
	C28.788960,101.783463 29.007124,100.943092 29.594316,100.042175 
z"/>
<path fill="#C5DBE2" opacity="1.000000" stroke="none" 
	d="
M31.819599,98.685532 
	C31.513157,99.251541 31.048882,99.583717 30.283007,99.939697 
	C30.541527,99.459572 31.101645,98.955635 31.819599,98.685532 
z"/>
<path fill="#B7EEF7" opacity="1.000000" stroke="none" 
	d="
M44.735077,109.011398 
	C44.174637,109.216843 43.262779,109.365692 42.304893,109.204453 
	C42.967125,108.914520 43.675392,108.934669 44.735077,109.011398 
z"/>
<path fill="#6CD7EA" opacity="1.000000" stroke="none" 
	d="
M101.901382,24.753536 
	C101.386246,24.870615 100.772896,24.649847 100.015839,24.124615 
	C100.515800,24.018661 101.159485,24.217175 101.901382,24.753536 
z"/>
<path fill="#D2F1F6" opacity="1.000000" stroke="none" 
	d="
M76.016945,156.033112 
	C59.850033,149.838043 43.614281,143.778824 30.235081,132.337677 
	C31.212175,131.879120 31.885979,131.763687 32.843231,131.716095 
	C33.738071,132.261963 34.349461,132.739990 35.037529,133.550949 
	C35.887848,134.196442 36.661491,134.508987 37.720795,134.880371 
	C38.681473,135.237213 39.356487,135.535187 39.958191,135.900665 
	C39.884872,135.968185 39.966053,136.150253 40.127823,136.343109 
	C40.594604,136.660049 40.899612,136.784134 41.508492,137.062714 
	C43.320560,138.155182 44.828754,139.093155 46.517273,140.296768 
	C51.130714,142.397263 55.563835,144.232117 60.273849,146.187424 
	C61.144455,146.405090 61.738163,146.502319 62.517841,146.878494 
	C63.775414,147.495453 64.847008,147.833466 66.055359,148.419479 
	C66.458344,148.935120 66.724564,149.202774 67.066551,149.747116 
	C68.150116,150.242249 69.157913,150.460693 70.517319,150.712585 
	C72.574646,151.499359 74.280357,152.252686 75.987732,153.384308 
	C75.998573,154.519424 76.007759,155.276276 76.016945,156.033112 
z"/>
<path fill="#DCE9E9" opacity="1.000000" stroke="none" 
	d="
M76.384819,156.093735 
	C76.007759,155.276276 75.998573,154.519424 76.227814,153.389435 
	C76.466240,153.016266 76.945992,153.029999 77.170517,153.320007 
	C81.590424,154.817368 85.785805,156.024719 89.992020,157.608765 
	C89.985901,158.740677 89.968956,159.495880 89.952011,160.251099 
	C85.552238,158.885513 81.152466,157.519928 76.384819,156.093735 
z"/>
<path fill="#C4EFE6" opacity="1.000000" stroke="none" 
	d="
M90.196472,160.494995 
	C89.968956,159.495880 89.985901,158.740677 90.360931,157.589905 
	C93.149467,158.061646 95.579918,158.928940 97.997894,160.167450 
	C98.010674,161.279083 98.035942,162.019501 98.061203,162.759949 
	C95.521111,162.086258 92.981018,161.412567 90.196472,160.494995 
z"/>
<path fill="#FDFFFF" opacity="1.000000" stroke="none" 
	d="
M98.444023,162.854675 
	C98.035942,162.019501 98.010674,161.279083 98.339325,160.186752 
	C99.141365,159.799561 99.589485,159.764252 100.037605,159.728943 
	C100.753738,159.888702 101.469872,160.048462 102.556763,160.399689 
	C102.927528,160.591156 102.964691,160.997345 103.008995,161.054047 
	C103.053299,161.110733 102.822960,161.080688 102.822960,161.080688 
	C102.822960,161.080688 102.996674,160.996811 103.337875,160.975632 
	C104.128014,160.915146 104.576965,160.875839 105.025909,160.836517 
	C105.847260,161.084824 106.668610,161.333115 107.783440,161.720871 
	C107.816742,162.677017 107.556564,163.493713 107.167816,164.610687 
	C104.301781,164.257095 101.564316,163.603256 98.444023,162.854675 
z"/>
<path fill="#C5DBE2" opacity="1.000000" stroke="none" 
	d="
M32.559780,131.648254 
	C31.885979,131.763687 31.212175,131.879120 30.023514,132.054031 
	C29.302349,132.083252 29.139610,131.982483 28.983738,131.305023 
	C28.940619,130.556290 28.934204,130.313766 28.927788,130.071228 
	C28.927788,130.071228 29.182322,129.805481 29.614586,129.804871 
	C30.884493,130.418930 31.722137,131.033600 32.559780,131.648254 
z"/>
<path fill="#D2F1F6" opacity="1.000000" stroke="none" 
	d="
M28.587481,130.052277 
	C28.934204,130.313766 28.940619,130.556290 28.934490,131.164215 
	C28.361250,131.208206 27.800550,130.886795 27.059258,130.295898 
	C27.334833,130.028702 27.791004,130.031006 28.587481,130.052277 
z"/>
<path fill="#CFE3E8" opacity="1.000000" stroke="none" 
	d="
M127.285789,151.467438 
	C126.720230,151.118591 126.154671,150.769745 125.269501,149.856384 
	C124.944450,148.197830 124.939034,147.103790 124.967331,145.596222 
	C125.378975,140.888046 122.376030,141.968140 119.863388,141.809860 
	C119.144417,141.734253 118.568680,141.889832 117.619995,141.994644 
	C116.494972,141.961105 115.742905,141.978348 114.699738,141.978394 
	C114.214249,141.963104 114.019852,141.965027 113.725037,141.658142 
	C110.691917,139.211761 107.759216,137.074203 104.999512,134.650879 
	C106.199356,132.931992 107.226204,131.498871 108.553490,129.915161 
	C110.609489,129.050308 113.208511,127.218384 113.983650,127.803329 
	C118.993767,131.584198 123.605927,135.892395 128.169983,140.407715 
	C127.756180,144.347641 127.520981,147.907547 127.285789,151.467438 
M114.153755,130.698898 
	C114.326691,130.941666 114.499626,131.184418 114.672562,131.427185 
	C114.627777,131.069275 114.582993,130.711365 114.153755,130.698898 
z"/>
<path fill="#37AD48" opacity="1.000000" stroke="none" 
	d="
M99.987366,159.440643 
	C99.589485,159.764252 99.141365,159.799561 98.351807,159.815552 
	C95.579918,158.928940 93.149467,158.061646 90.350105,157.213196 
	C85.785805,156.024719 81.590424,154.817368 77.357880,153.065948 
	C77.915062,152.345993 78.509407,152.170135 79.417511,152.092285 
	C83.164009,151.769135 86.596741,151.347977 90.382263,150.984360 
	C93.845985,153.130112 96.557884,156.303055 101.163689,154.866074 
	C101.342079,154.919540 101.712296,154.960342 101.899780,155.245422 
	C102.732872,155.725952 103.378471,155.921402 104.024071,156.116882 
	C102.375648,156.624237 100.727219,157.131607 99.018608,157.657501 
	C99.183266,157.925476 99.560196,158.538910 99.987366,159.440643 
z"/>
<path fill="#156B81" opacity="1.000000" stroke="none" 
	d="
M146.990448,141.038681 
	C146.349258,142.455261 145.708054,143.871826 145.058624,145.628876 
	C140.864090,146.324799 138.285675,149.178604 135.327240,151.615540 
	C135.555695,147.173477 136.985779,142.688828 130.391495,142.248062 
	C130.232925,142.237457 130.132034,141.363678 130.441101,140.890778 
	C132.914215,140.860245 134.950455,140.831421 137.199890,141.113083 
	C140.605545,141.295258 143.797989,141.166977 146.990448,141.038681 
z"/>
<path fill="#2F879C" opacity="1.000000" stroke="none" 
	d="
M130.004257,140.892487 
	C130.132034,141.363678 130.232925,142.237457 130.391495,142.248062 
	C136.985779,142.688828 135.555695,147.173477 134.964386,151.657776 
	C134.958755,152.081497 134.617630,152.123352 134.059265,152.040192 
	C132.278351,150.510864 131.055817,149.064713 129.333099,147.026901 
	C129.229446,149.103195 129.153198,150.630417 129.076950,152.157623 
	C128.579590,152.059753 128.082230,151.961884 127.435326,151.665726 
	C127.520981,147.907547 127.756180,144.347641 128.299942,140.424927 
	C128.608505,140.062119 128.870789,140.052292 129.102707,140.133316 
	C129.642380,140.356964 129.865585,140.583008 130.004257,140.892487 
z"/>
<path fill="#AECDD5" opacity="1.000000" stroke="none" 
	d="
M113.825455,141.966949 
	C114.019852,141.965027 114.214249,141.963104 114.707718,142.362946 
	C115.091927,143.530579 115.177048,144.296417 115.157059,145.480072 
	C113.613472,151.228973 117.171501,152.746735 121.176826,153.923126 
	C120.030098,154.330048 118.883377,154.736954 117.146713,154.832733 
	C110.112053,153.443420 110.112053,153.443420 110.017273,144.678284 
	C110.021072,144.060547 110.022881,143.707428 110.356735,143.253876 
	C111.734344,142.757935 112.779900,142.362442 113.825455,141.966949 
z"/>
<path fill="#408491" opacity="1.000000" stroke="none" 
	d="
M110.015289,144.942902 
	C110.112053,153.443420 110.112053,153.443420 116.770645,154.843994 
	C113.336754,155.174530 109.688988,155.182678 105.543991,154.694733 
	C105.645172,150.545578 102.708237,144.994720 110.015289,144.942902 
z"/>
<path fill="#5E8197" opacity="1.000000" stroke="none" 
	d="
M121.443108,153.786835 
	C117.171501,152.746735 113.613472,151.228973 115.508469,145.518738 
	C118.047287,146.043732 120.129585,146.947830 122.245926,147.866714 
	C122.830605,147.462753 123.882111,146.736237 124.933617,146.009735 
	C124.939034,147.103790 124.944450,148.197830 124.967125,149.704636 
	C123.892708,151.295105 122.801048,152.472809 121.443108,153.786835 
z"/>
<path fill="#A8C3CD" opacity="1.000000" stroke="none" 
	d="
M110.017273,144.678284 
	C102.708237,144.994720 105.645172,150.545578 105.155869,154.634415 
	C105.020325,155.343491 104.775665,155.616791 104.277542,156.003479 
	C103.378471,155.921402 102.732872,155.725952 101.948341,155.014862 
	C101.809410,154.499222 101.670509,154.048950 101.747673,153.623413 
	C101.797836,151.473740 101.770836,149.749619 101.832947,147.614807 
	C101.866631,145.810394 101.811203,144.416641 101.866867,142.798355 
	C102.051888,142.424042 102.125832,142.274292 102.606644,142.101257 
	C105.350571,142.503418 107.687630,142.928864 110.024689,143.354309 
	C110.022881,143.707428 110.021072,144.060547 110.017273,144.678284 
z"/>
<path fill="#156B81" opacity="1.000000" stroke="none" 
	d="
M129.290482,152.391983 
	C129.153198,150.630417 129.229446,149.103195 129.333099,147.026901 
	C131.055817,149.064713 132.278351,150.510864 133.887543,152.033478 
	C132.684143,152.282074 131.094070,152.454208 129.290482,152.391983 
z"/>
<path fill="#37AD48" opacity="1.000000" stroke="none" 
	d="
M102.964691,160.997345 
	C102.964691,160.997345 102.927528,160.591156 102.924767,160.387238 
	C103.599228,160.207397 104.276451,160.231476 104.989792,160.546051 
	C104.576965,160.875839 104.128014,160.915146 103.338852,160.969116 
	C102.998627,160.983765 102.964691,160.997345 102.964691,160.997345 
z"/>
<path fill="#8CE2EF" opacity="1.000000" stroke="none" 
	d="
M101.782913,51.087875 
	C101.811028,51.794655 101.839134,52.501438 101.541817,53.625984 
	C101.185837,54.722160 101.155273,55.400562 101.124710,56.078968 
	C101.130814,56.487652 101.136917,56.896336 100.882149,57.772701 
	C100.790047,58.851070 100.958817,59.461761 101.126633,60.381630 
	C101.126907,61.104057 101.128136,61.517311 100.866272,62.110764 
	C100.955444,63.192257 101.307732,64.093544 101.723373,65.329941 
	C101.731956,66.114021 101.677185,66.562988 101.283356,67.121399 
	C100.939041,70.144432 100.933784,73.058006 100.947845,76.379242 
	C100.943840,90.138176 100.953094,103.489693 100.857483,116.840446 
	C100.845024,118.580078 100.293022,120.315849 99.684692,121.940598 
	C97.934212,120.880989 96.489975,119.934204 95.035889,118.519623 
	C95.022842,93.037788 95.019638,68.023743 95.182022,42.917763 
	C95.237610,42.546600 95.127609,42.267372 95.005371,41.661407 
	C94.985779,40.899170 94.978424,40.463661 94.971062,40.028152 
	C95.499214,39.987301 96.027374,39.946449 96.946365,39.812923 
	C98.013176,39.745361 98.689148,39.770470 99.699814,40.192757 
	C100.630371,41.421436 101.226257,42.252941 101.822144,43.084446 
	C101.840706,43.491425 101.859276,43.898407 101.568665,44.676384 
	C101.435638,45.727531 101.611778,46.407681 101.787918,47.087830 
	C101.812172,47.493843 101.836433,47.899860 101.554436,48.677391 
	C101.426430,49.728565 101.604675,50.408218 101.782913,51.087875 
z"/>
<path fill="#62A9BD" opacity="1.000000" stroke="none" 
	d="
M95.016434,43.009693 
	C95.019638,68.023743 95.022842,93.037788 94.779808,118.544418 
	C94.362274,119.036957 94.190994,119.036911 94.019714,119.036850 
	C93.794495,118.728279 93.569275,118.419708 93.089088,117.965454 
	C92.879166,93.757530 92.898537,69.695168 93.020508,45.633324 
	C93.029747,43.810932 93.768044,41.992233 94.569260,40.099983 
	C94.978424,40.463661 94.985779,40.899170 94.990723,41.916840 
	C94.997673,42.669228 95.007050,42.839458 95.016434,43.009693 
z"/>
<path fill="#6393A8" opacity="1.000000" stroke="none" 
	d="
M118.986237,94.441795 
	C118.942062,93.972214 119.382187,93.932999 119.991257,93.939240 
	C122.369087,94.339546 124.137848,94.733604 126.095566,95.336182 
	C126.804344,95.738892 127.324158,95.933075 127.843964,96.127258 
	C127.896835,97.157074 127.949707,98.186890 127.709129,99.894958 
	C127.283279,108.353806 127.150879,116.134399 126.614456,123.945778 
	C123.813972,123.643364 121.417526,123.310150 119.002365,122.662415 
	C118.948891,121.930412 118.914139,121.512939 118.879387,121.095467 
	C118.929726,112.367439 118.980064,103.639404 118.986237,94.441795 
z"/>
<path fill="#3F748D" opacity="1.000000" stroke="none" 
	d="
M109.073006,100.087990 
	C109.515442,101.472023 109.638832,102.830513 109.831406,104.595695 
	C109.828400,109.715340 109.756203,114.428299 109.744904,119.939804 
	C109.871254,120.949387 109.936714,121.160416 109.992462,121.703560 
	C108.955101,123.667900 107.927467,125.300140 106.549721,126.943619 
	C104.464279,125.990921 102.728951,125.026985 101.393051,123.955643 
	C102.211174,122.368652 102.959381,120.896309 102.992065,119.408249 
	C103.140945,112.630524 103.088646,105.848373 103.347244,98.943916 
	C104.049774,98.557007 104.513725,98.293991 104.977676,98.030975 
	C106.236435,98.708138 107.495193,99.385292 109.073006,100.087990 
z"/>
<path fill="#3BBDD5" opacity="1.000000" stroke="none" 
	d="
M106.899834,126.932381 
	C107.927467,125.300140 108.955101,123.667900 110.364235,121.601044 
	C111.502075,121.014778 112.258430,120.863129 113.014778,120.711479 
	C114.693665,120.822014 116.372551,120.932541 118.465408,121.069267 
	C118.914139,121.512939 118.948891,121.930412 118.725571,122.791824 
	C116.739838,127.501915 120.793037,127.558662 122.863770,129.460892 
	C125.615234,131.880585 128.264740,133.972580 130.935654,136.035461 
	C130.957062,136.006348 130.931885,136.063370 130.905060,136.389709 
	C130.932907,137.149002 130.987564,137.581955 131.048370,138.249634 
	C131.054489,138.484344 131.105469,138.951172 130.779327,138.989716 
	C129.925735,139.369614 129.398254,139.710953 128.870789,140.052292 
	C128.870789,140.052292 128.608505,140.062119 128.478546,140.044891 
	C123.605927,135.892395 118.993767,131.584198 113.983650,127.803329 
	C113.208511,127.218384 110.609489,129.050308 108.182068,129.880463 
	C107.263641,129.968155 107.017075,129.939941 106.785217,129.539612 
	C106.833237,128.422470 106.866531,127.677422 106.899834,126.932381 
z"/>
<path fill="#A2DAE5" opacity="1.000000" stroke="none" 
	d="
M112.755493,120.500145 
	C112.258430,120.863129 111.502075,121.014778 110.373955,121.268936 
	C109.936714,121.160416 109.871254,120.949387 109.809494,120.407333 
	C110.707542,120.147141 111.601883,120.217979 112.755493,120.500145 
z"/>
<path fill="#4095AE" opacity="1.000000" stroke="none" 
	d="
M136.235687,123.562531 
	C137.133408,123.631699 138.031143,123.700867 139.422577,124.033440 
	C141.235672,125.560249 142.555099,126.823647 143.874512,128.087051 
	C143.608994,131.141785 143.343460,134.196533 142.823303,137.626923 
	C142.568680,138.002579 142.142761,138.022202 142.088165,137.665390 
	C140.936539,133.701096 139.935669,130.058411 138.641495,126.523094 
	C138.441330,125.976326 136.896500,125.921822 135.995789,125.291985 
	C136.090607,124.483711 136.163147,124.023125 136.235687,123.562531 
z"/>
<path fill="#1C728F" opacity="1.000000" stroke="none" 
	d="
M143.956848,127.712769 
	C142.555099,126.823647 141.235672,125.560249 139.758698,123.958099 
	C139.582138,122.340248 139.563156,121.061134 139.672760,119.487312 
	C141.306213,120.357597 142.811096,121.522591 144.605896,122.795807 
	C144.610260,124.382187 144.324722,125.860344 143.956848,127.712769 
z"/>
<path fill="#2F879C" opacity="1.000000" stroke="none" 
	d="
M142.142761,138.022186 
	C142.142761,138.022202 142.568680,138.002579 142.781799,138.001694 
	C142.994904,138.000809 143.072296,138.478867 143.037567,138.976303 
	C142.997055,139.649155 142.991272,139.824570 142.592072,139.999451 
	C140.422562,139.695267 138.646423,139.391647 136.460785,139.055542 
	C134.402679,138.999100 132.754074,138.975128 131.105469,138.951172 
	C131.105469,138.951172 131.054489,138.484344 131.310928,138.224976 
	C131.355545,137.331512 131.143723,136.697449 130.931885,136.063370 
	C130.931885,136.063370 130.957062,136.006348 130.970215,135.670135 
	C131.685745,134.557465 132.388123,133.781006 133.300507,133.207642 
	C134.345764,134.903320 134.844849,137.142563 136.098053,137.706772 
	C137.812729,138.478745 140.100586,137.977631 142.142761,138.022186 
z"/>
<path fill="#3E879F" opacity="1.000000" stroke="none" 
	d="
M136.870300,139.088028 
	C138.646423,139.391647 140.422562,139.695267 142.860016,139.977661 
	C143.695297,139.913879 143.869247,139.871307 144.043198,139.828735 
	C145.122131,140.082443 146.201050,140.336151 147.135223,140.814270 
	C143.797989,141.166977 140.605545,141.295258 137.184814,140.828262 
	C136.927795,139.851318 136.899048,139.469681 136.870300,139.088028 
z"/>
<path fill="#155877" opacity="1.000000" stroke="none" 
	d="
M143.931458,139.643738 
	C143.869247,139.871307 143.695297,139.913879 143.253418,139.978210 
	C142.991272,139.824570 142.997055,139.649155 143.063599,139.217041 
	C143.402786,139.061462 143.634567,139.227600 143.931458,139.643738 
z"/>
<path fill="#55889E" opacity="1.000000" stroke="none" 
	d="
M104.987633,97.559189 
	C104.513725,98.293991 104.049774,98.557007 103.307281,98.469223 
	C102.932800,90.671646 102.836861,83.224846 102.775284,75.359085 
	C102.413910,72.297394 102.018166,69.654671 101.622414,67.011948 
	C101.677185,66.562988 101.731956,66.114021 102.020844,65.177322 
	C102.465485,63.859440 102.676018,63.029285 102.916443,61.903114 
	C102.708725,61.110264 102.471100,60.613434 102.195503,59.840820 
	C102.174324,59.380207 102.191124,59.195377 102.207924,59.010548 
	C102.903511,59.007355 103.599106,59.004162 104.642159,59.005638 
	C104.992279,71.702675 104.994934,84.395042 104.987633,97.559189 
z"/>
<path fill="#BDF1F9" opacity="1.000000" stroke="none" 
	d="
M109.996552,58.250889 
	C110.155052,58.266228 110.282021,58.536003 110.253128,58.903252 
	C110.053177,58.835594 110.009094,58.670456 109.996552,58.250889 
z"/>
<path fill="#3B7C96" opacity="1.000000" stroke="none" 
	d="
M58.998081,95.001083 
	C58.975563,94.225700 58.953045,93.450325 59.084244,92.083725 
	C59.848282,90.994026 60.458603,90.495544 61.430058,89.951347 
	C63.893555,89.258064 65.995918,88.610489 68.098282,87.962914 
	C68.098282,87.962914 68.449257,88.035675 68.639366,88.520447 
	C68.843361,97.870560 68.766136,106.737946 68.963669,115.599205 
	C68.995407,117.023285 70.253502,118.420036 70.978149,120.119110 
	C71.016655,120.602592 71.021706,120.796394 70.615891,121.013382 
	C68.848190,121.053429 67.491348,121.070290 66.065201,120.989265 
	C65.995903,120.891380 65.882805,120.679840 65.882805,120.679840 
	C63.060402,119.956253 63.092903,117.838196 62.886810,115.447296 
	C62.700119,113.281578 61.563450,111.197739 60.435059,108.537048 
	C59.682343,103.664558 59.340210,99.332817 58.998081,95.001083 
z"/>
<path fill="#4BC4DA" opacity="1.000000" stroke="none" 
	d="
M68.068161,87.499489 
	C65.995918,88.610489 63.893555,89.258064 61.405190,89.491226 
	C61.321915,83.390205 61.624641,77.703583 61.927368,72.016968 
	C63.587872,72.017914 65.248375,72.018867 67.311638,72.035217 
	C67.822273,77.045761 67.930153,82.040909 68.068161,87.499489 
z"/>
<path fill="#A3E8F3" opacity="1.000000" stroke="none" 
	d="
M70.944695,119.829422 
	C70.253502,118.420036 68.995407,117.023285 68.963669,115.599205 
	C68.766136,106.737946 68.843361,97.870560 68.817184,88.542847 
	C69.028183,88.068520 69.251488,88.056541 69.961655,88.422821 
	C70.602676,90.753334 70.812119,92.703110 70.900497,94.658348 
	C71.151047,100.201370 71.352089,105.746643 71.602753,111.458328 
	C71.632874,111.625641 71.794907,111.926674 71.728683,112.340393 
	C71.423210,115.112541 71.183952,117.470985 70.944695,119.829422 
z"/>
<path fill="#66A2B7" opacity="1.000000" stroke="none" 
	d="
M71.572624,111.291023 
	C71.352089,105.746643 71.151047,100.201370 70.900497,94.658348 
	C70.812119,92.703110 70.602676,90.753334 70.297089,88.422958 
	C70.520760,84.109398 70.895844,80.173935 71.602737,76.262985 
	C71.963593,76.525803 71.992630,76.764114 72.014496,77.376640 
	C72.012131,78.499374 72.016945,79.247894 72.010986,80.455490 
	C72.021652,84.307266 72.043091,87.699974 72.053970,91.547470 
	C72.070541,95.673103 72.097656,99.343948 72.092018,103.468307 
	C71.897049,106.378227 71.734833,108.834625 71.572624,111.291023 
z"/>
<path fill="#4DB4CA" opacity="1.000000" stroke="none" 
	d="
M72.021660,77.002434 
	C71.992630,76.764114 71.963593,76.525803 71.866150,75.930351 
	C72.939781,74.693832 74.081825,73.814445 75.604599,72.960480 
	C75.985329,72.985916 76.051727,73.055656 75.986275,73.380791 
	C74.621101,74.804764 73.321381,75.903595 72.021660,77.002434 
z"/>
<path fill="#4DB4CA" opacity="1.000000" stroke="none" 
	d="
M76.003983,72.254608 
	C76.437645,71.984940 76.866707,71.938011 77.638634,72.176865 
	C77.988487,72.642822 77.995476,72.822983 77.676994,73.007866 
	C76.918259,73.026939 76.484993,73.041298 76.051727,73.055649 
	C76.051727,73.055656 75.985329,72.985916 75.950836,72.950508 
	C75.916336,72.915100 75.999382,72.477341 76.003983,72.254608 
z"/>
<path fill="#55889E" opacity="1.000000" stroke="none" 
	d="
M136.233826,123.130524 
	C136.163147,124.023125 136.090607,124.483711 135.626282,125.387230 
	C134.476273,125.799316 133.718048,125.768486 132.972855,125.285652 
	C132.995773,117.577438 133.005676,110.321228 132.996338,102.791039 
	C132.940689,102.337631 132.904251,102.158188 132.867828,101.978752 
	C132.942245,100.992348 133.016663,100.005951 133.464066,98.598938 
	C134.535156,98.173233 135.233261,98.168144 135.931381,98.163055 
	C136.031586,106.341545 136.131775,114.520027 136.233826,123.130524 
z"/>
<path fill="#76CADC" opacity="1.000000" stroke="none" 
	d="
M135.984024,97.695587 
	C135.233261,98.168144 134.535156,98.173233 133.493164,98.228928 
	C133.101791,95.884926 132.833984,93.464989 133.105011,91.106987 
	C133.229950,90.020111 134.409088,89.054413 135.511703,88.007782 
	C135.954346,91.063904 135.995514,94.146011 135.984024,97.695587 
z"/>
<path fill="#23B7D2" opacity="1.000000" stroke="none" 
	d="
M49.737083,111.017036 
	C51.550137,111.006317 53.363205,110.983589 55.176228,110.987076 
	C61.118504,110.998482 63.011242,114.363472 60.276539,121.158943 
	C60.007969,125.254562 59.946609,128.601730 59.548058,132.005463 
	C57.159206,133.070892 55.061886,135.118790 53.133698,131.726746 
	C54.452045,128.888306 56.151585,125.760269 50.434959,125.873184 
	C50.376949,125.049248 50.367119,124.576729 50.729836,123.959381 
	C50.691872,122.538841 50.281357,121.263130 49.850090,119.539383 
	C49.798592,116.399902 49.767838,113.708466 49.737083,111.017036 
z"/>
<path fill="#154C6B" opacity="1.000000" stroke="none" 
	d="
M50.357288,124.104210 
	C50.367119,124.576729 50.376949,125.049248 50.301174,126.218475 
	C50.184345,130.280457 50.153122,133.645737 50.065765,137.380249 
	C49.034992,138.394836 48.060352,139.040161 46.996902,139.321533 
	C46.354984,136.963379 46.375870,133.781723 45.146133,133.187302 
	C40.614174,130.996628 42.370266,127.246040 42.019207,123.620193 
	C44.815655,120.107704 44.933350,116.498947 43.882778,112.685104 
	C45.658546,112.048569 47.434315,111.412033 49.473587,110.896271 
	C49.767838,113.708466 49.798592,116.399902 49.654839,119.740509 
	C49.772655,121.627861 50.064972,122.866035 50.357288,124.104210 
M45.399696,125.454849 
	C44.919209,126.243835 44.438721,127.032829 43.958237,127.821815 
	C44.463509,128.063705 44.968784,128.305588 45.474056,128.547470 
	C45.578037,127.693687 45.682014,126.839912 45.399696,125.454849 
z"/>
<path fill="#4298B0" opacity="1.000000" stroke="none" 
	d="
M58.690002,95.150429 
	C59.340210,99.332817 59.682343,103.664558 60.056938,108.448364 
	C57.251053,108.677368 54.412704,108.454300 51.183491,108.062302 
	C50.783676,103.563484 50.774723,99.233589 51.190556,94.437973 
	C52.094055,93.949684 52.572765,93.927109 53.051479,93.904526 
	C53.567608,95.405479 54.083736,96.906425 54.854412,99.147621 
	C56.180172,97.701462 57.281048,96.500618 58.690002,95.150429 
z"/>
<path fill="#1C728F" opacity="1.000000" stroke="none" 
	d="
M59.885254,131.948898 
	C59.946609,128.601730 60.007969,125.254562 60.100368,121.448486 
	C61.156898,120.977211 62.182392,120.964844 63.599174,121.392357 
	C64.634323,124.226509 65.278175,126.620781 66.161270,129.311279 
	C67.647636,129.757568 68.894753,129.907623 70.075119,130.359802 
	C69.582565,131.108704 69.156769,131.555496 68.377159,132.009171 
	C67.316124,132.018936 66.608902,132.021835 65.517838,132.118500 
	C64.759415,134.882401 64.482323,137.571060 63.979733,140.216904 
	C63.570538,142.371063 62.891342,144.473938 62.331867,146.599548 
	C61.738163,146.502319 61.144455,146.405090 60.278156,145.781387 
	C59.981831,144.174301 59.958096,143.093704 59.960247,141.557373 
	C59.952507,138.050751 59.918880,134.999817 59.885254,131.948898 
z"/>
<path fill="#13718F" opacity="1.000000" stroke="none" 
	d="
M34.934059,118.995049 
	C34.967072,117.527588 35.000088,116.060120 35.099457,114.145981 
	C37.164101,113.457497 39.162395,113.215683 41.575306,113.348015 
	C42.011971,119.707657 40.594090,121.392967 35.031250,121.602066 
	C34.988007,120.485100 34.961033,119.740074 34.934059,118.995049 
z"/>
<path fill="#155877" opacity="1.000000" stroke="none" 
	d="
M35.047523,121.973999 
	C40.594090,121.392967 42.011971,119.707657 41.956230,113.286530 
	C42.358215,112.790810 42.793896,112.730713 43.556175,112.677856 
	C44.933350,116.498947 44.815655,120.107704 41.778473,123.770218 
	C41.048172,124.857216 40.567921,125.421844 39.846771,125.721970 
	C38.086422,124.296303 36.566975,123.135155 35.047523,121.973999 
z"/>
<path fill="#137896" opacity="1.000000" stroke="none" 
	d="
M65.922028,129.015060 
	C65.278175,126.620781 64.634323,124.226509 63.986443,121.395981 
	C64.409103,120.923744 64.835793,120.887749 65.572647,120.765793 
	C65.882805,120.679840 65.995903,120.891380 66.032433,121.419678 
	C66.047523,123.986214 66.026085,126.024460 66.013687,128.303375 
	C66.022736,128.544037 65.922028,129.015060 65.922028,129.015060 
z"/>
<path fill="#4CBED4" opacity="1.000000" stroke="none" 
	d="
M53.038353,93.446396 
	C52.572765,93.927109 52.094055,93.949684 51.255142,93.975609 
	C50.913105,88.632133 50.931267,83.285316 51.016727,77.475723 
	C51.726151,78.277817 52.843262,79.513832 52.922157,80.812897 
	C53.167858,84.858521 53.020283,88.928017 53.038353,93.446396 
z"/>
<path fill="#0A3D5D" opacity="1.000000" stroke="none" 
	d="
M35.031250,121.602066 
	C36.566975,123.135155 38.086422,124.296303 39.828819,126.173492 
	C40.045013,129.870743 40.038261,132.851959 40.031506,135.833160 
	C39.356487,135.535187 38.681473,135.237213 37.561722,134.611969 
	C36.398277,133.929123 35.679565,133.573563 34.960850,133.218002 
	C34.349461,132.739990 33.738071,132.261963 32.843231,131.716095 
	C31.722137,131.033600 30.884493,130.418930 29.741442,129.671600 
	C29.314289,129.261246 29.147394,129.014038 28.862192,128.585541 
	C28.929930,125.160194 29.070827,121.946663 29.223763,118.458565 
	C31.041388,118.654884 32.593037,118.822479 34.539371,118.992561 
	C34.961033,119.740074 34.988007,120.485100 35.031250,121.602066 
z"/>
<path fill="#1989A6" opacity="1.000000" stroke="none" 
	d="
M106.549721,126.943619 
	C106.866531,127.677422 106.833237,128.422470 106.444237,129.471756 
	C102.455559,128.857208 98.866684,127.483749 95.179268,127.125977 
	C89.620094,126.586586 86.076706,123.450180 83.146744,119.035660 
	C85.485657,119.138901 87.670509,119.536461 89.855362,119.934021 
	C91.207474,119.848824 92.559586,119.763618 93.965706,119.357635 
	C94.190994,119.036911 94.362274,119.036957 94.789642,119.012215 
	C96.489975,119.934204 97.934212,120.880989 99.700211,122.236893 
	C100.345848,123.118347 100.669731,123.590698 100.993622,124.063049 
	C102.728951,125.026985 104.464279,125.990921 106.549721,126.943619 
z"/>
<path fill="#195A78" opacity="1.000000" stroke="none" 
	d="
M89.728844,119.589264 
	C87.670509,119.536461 85.485657,119.138901 82.876068,118.961586 
	C82.268761,119.143845 82.086189,119.105865 81.771622,118.805527 
	C81.093475,118.361855 80.547325,118.180542 79.985168,117.655090 
	C79.936203,116.852837 79.903244,116.394722 79.905777,115.509811 
	C79.898972,113.363747 79.856682,111.644485 79.865479,109.694359 
	C79.916550,109.463493 79.977592,108.994560 80.370926,108.997070 
	C82.692383,107.997963 84.620506,106.996353 86.526924,106.006027 
	C86.901421,106.751068 87.469513,107.881256 88.037605,109.011444 
	C88.559181,112.422462 89.080750,115.833488 89.728844,119.589264 
z"/>
<path fill="#156B81" opacity="1.000000" stroke="none" 
	d="
M88.051407,108.572792 
	C87.469513,107.881256 86.901421,106.751068 86.526924,106.006027 
	C84.620506,106.996353 82.692383,107.997963 80.351906,108.560059 
	C79.954170,106.077934 79.968788,104.035332 80.377052,101.994598 
	C83.647263,102.221863 85.220551,101.065414 85.341560,98.062347 
	C86.454620,99.412178 87.226425,100.706993 87.998245,102.001808 
	C88.020561,104.045921 88.042877,106.090027 88.051407,108.572792 
z"/>
<path fill="#3BA4BC" opacity="1.000000" stroke="none" 
	d="
M78.002464,73.003151 
	C77.995476,72.822983 77.988487,72.642822 77.962219,72.192444 
	C78.554008,71.788879 79.165092,71.655518 79.957138,71.262985 
	C81.621178,71.489319 83.104256,71.974815 84.796677,72.723892 
	C84.671089,76.721100 84.336166,80.454727 83.615593,84.612701 
	C82.464371,84.994781 81.698799,84.952515 80.947647,84.464279 
	C80.969284,81.897148 81.362030,79.680084 80.865578,77.684196 
	C80.444481,75.991203 78.996216,74.553703 78.002464,73.003151 
z"/>
<path fill="#1989A6" opacity="1.000000" stroke="none" 
	d="
M80.933228,84.910248 
	C81.698799,84.952515 82.464371,84.994781 83.613396,85.044998 
	C84.106171,85.364609 84.297997,85.612411 84.788666,86.343796 
	C84.996155,89.254120 84.987320,91.617012 84.622177,93.979652 
	C82.828400,93.313385 81.390930,92.647362 79.939713,91.563087 
	C80.261726,89.066643 80.597473,86.988449 80.933228,84.910248 
z"/>
<path fill="#1C728F" opacity="1.000000" stroke="none" 
	d="
M84.978493,93.979897 
	C84.987320,91.617012 84.996155,89.254120 85.003220,86.448715 
	C85.995514,87.105766 87.732430,88.133316 87.847313,89.318146 
	C88.224068,93.203804 88.011490,97.146606 88.011826,101.534630 
	C87.226425,100.706993 86.454620,99.412178 85.340080,97.659721 
	C84.991058,96.128021 84.984772,95.053955 84.978493,93.979897 
z"/>
<path fill="#88E3F0" opacity="1.000000" stroke="none" 
	d="
M61.494843,72.003258 
	C61.624641,77.703583 61.321915,83.390205 61.044056,89.536942 
	C60.458603,90.495544 59.848282,90.994026 59.015404,91.701889 
	C57.858410,91.102043 56.151970,90.326698 56.114723,89.478096 
	C55.871376,83.933777 55.989540,78.373596 55.989540,72.312065 
	C57.934841,72.188385 59.498581,72.088966 61.494843,72.003258 
z"/>
<path fill="#4CBED4" opacity="1.000000" stroke="none" 
	d="
M52.446060,72.537773 
	C52.410244,72.478859 52.481876,72.596687 52.446060,72.537773 
z"/>
<path fill="#5E8197" opacity="1.000000" stroke="none" 
	d="
M133.015579,103.065010 
	C133.005676,110.321228 132.995773,117.577438 132.720673,125.365486 
	C132.279602,125.907265 132.103699,125.917213 131.721039,125.937180 
	C131.514282,125.947189 131.100296,125.947205 130.903656,125.715958 
	C130.133606,125.326675 129.560211,125.168633 128.994690,124.992996 
	C129.002548,124.975403 129.025925,124.944771 129.012619,124.702377 
	C128.999313,124.459991 128.965363,123.975677 128.975494,123.508682 
	C128.992783,120.553406 128.896042,118.059563 129.029099,115.578041 
	C129.290588,110.701187 129.679840,105.831192 130.016235,100.958359 
	C130.131210,101.262733 130.299362,101.534187 130.884918,102.171715 
	C131.837982,102.735489 132.426773,102.900253 133.015579,103.065010 
z"/>
<path fill="#A3E8F3" opacity="1.000000" stroke="none" 
	d="
M128.249115,96.038734 
	C127.324158,95.933075 126.804344,95.738892 126.124664,94.857201 
	C125.978828,89.112251 125.992874,84.054810 126.006912,78.997360 
	C127.391335,78.998253 128.775757,78.999138 130.575043,79.002975 
	C130.995331,83.242805 131.198685,87.493813 130.897934,91.708855 
	C130.793777,93.168579 129.438232,94.539001 128.249115,96.038734 
z"/>
<path fill="#66A2B7" opacity="1.000000" stroke="none" 
	d="
M129.858276,100.707657 
	C129.679840,105.831192 129.290588,110.701187 129.029099,115.578041 
	C128.896042,118.059563 128.992783,120.553406 128.734985,123.517319 
	C128.484329,123.992950 128.002228,123.997742 127.755905,123.981613 
	C127.509575,123.965492 127.018471,123.914986 127.018478,123.914986 
	C127.150879,116.134399 127.283279,108.353806 127.718216,100.281708 
	C128.580612,100.145782 129.140457,100.301369 129.858276,100.707657 
z"/>
<path fill="#76CADC" opacity="1.000000" stroke="none" 
	d="
M132.996338,102.791039 
	C132.426773,102.900253 131.837982,102.735489 131.084320,102.306259 
	C131.353516,102.024651 131.787567,102.007523 132.544708,101.984573 
	C132.904251,102.158188 132.940689,102.337631 132.996338,102.791039 
z"/>
<path fill="#6CD7EA" opacity="1.000000" stroke="none" 
	d="
M101.909119,42.831524 
	C101.226257,42.252941 100.630371,41.421436 100.038971,40.230835 
	C100.508629,39.871807 100.973793,39.871872 101.789749,39.899502 
	C102.106712,40.401520 102.072884,40.875965 102.084305,41.705502 
	C102.085068,42.233261 102.040588,42.405930 101.909119,42.831524 
z"/>
<path fill="#7AD4E4" opacity="1.000000" stroke="none" 
	d="
M125.758301,78.718407 
	C125.992874,84.054810 125.978828,89.112251 125.935699,94.648682 
	C124.137848,94.733604 122.369087,94.339546 120.203308,93.877182 
	C120.247368,88.668442 120.688461,83.528008 121.441376,78.164146 
	C123.005356,78.106972 124.257523,78.273209 125.758301,78.718407 
z"/>
<path fill="#6CD7EA" opacity="1.000000" stroke="none" 
	d="
M101.863373,46.728325 
	C101.611778,46.407681 101.435638,45.727531 101.530182,44.980042 
	C101.846855,45.398075 101.892845,45.883446 101.863373,46.728325 
z"/>
<path fill="#6CD7EA" opacity="1.000000" stroke="none" 
	d="
M101.353676,55.876610 
	C101.155273,55.400562 101.185837,54.722160 101.488174,53.976707 
	C101.700851,54.497856 101.641747,55.086056 101.353676,55.876610 
z"/>
<path fill="#6CD7EA" opacity="1.000000" stroke="none" 
	d="
M102.053345,58.799385 
	C102.191124,59.195377 102.174324,59.380207 101.918243,59.823479 
	C101.495171,60.078770 101.311378,60.075611 101.127594,60.072453 
	C100.958817,59.461761 100.790047,58.851070 100.868309,58.078987 
	C101.376488,58.141136 101.637634,58.364677 102.053345,58.799385 
z"/>
<path fill="#6CD7EA" opacity="1.000000" stroke="none" 
	d="
M101.858902,50.728127 
	C101.604675,50.408218 101.426430,49.728565 101.516922,48.980721 
	C101.835403,49.397816 101.885147,49.883095 101.858902,50.728127 
z"/>
<path fill="#DCE9E9" opacity="1.000000" stroke="none" 
	d="
M68.730980,132.002304 
	C69.156769,131.555496 69.582565,131.108704 70.039642,130.338837 
	C70.070930,130.015778 70.019623,130.080505 70.274536,130.102127 
	C70.693619,130.078125 70.857803,130.032501 71.360779,129.937149 
	C73.107048,128.734741 74.382133,127.334084 75.956306,126.493637 
	C77.822800,125.497108 79.946922,124.983116 82.123383,124.536926 
	C84.664307,126.558151 87.041237,128.302429 89.562408,130.494705 
	C89.928337,135.309235 90.150002,139.675797 90.260818,144.446960 
	C90.188339,146.241150 90.226715,147.630722 90.172546,149.329926 
	C90.063156,150.068634 90.046318,150.497742 90.029480,150.926834 
	C86.596741,151.347977 83.164009,151.769135 79.268402,151.754227 
	C77.770401,148.678726 77.426117,144.894928 73.434158,145.813065 
	C72.045097,146.132568 71.238388,148.984055 70.165710,150.679153 
	C69.157913,150.460693 68.150116,150.242249 67.468735,149.581207 
	C68.107101,143.426514 68.419044,137.714417 68.730980,132.002304 
M76.930405,139.516617 
	C77.742767,139.643890 78.638725,140.051392 79.349861,139.839279 
	C80.770721,139.415466 83.064064,138.862518 83.253540,137.985992 
	C83.677536,136.024704 83.490196,133.607895 82.619339,131.834534 
	C82.219437,131.020187 79.375122,130.657684 78.070587,131.175934 
	C74.087471,132.758301 76.564003,136.204224 76.930405,139.516617 
z"/>
<path fill="#3EBD4A" opacity="1.000000" stroke="none" 
	d="
M70.517319,150.712585 
	C71.238388,148.984055 72.045097,146.132568 73.434158,145.813065 
	C77.426117,144.894928 77.770401,148.678726 78.954636,151.656219 
	C78.509407,152.170135 77.915062,152.345993 77.133362,152.775940 
	C76.945992,153.029999 76.466240,153.016266 76.226151,153.011139 
	C74.280357,152.252686 72.574646,151.499359 70.517319,150.712585 
z"/>
<path fill="#265A76" opacity="1.000000" stroke="none" 
	d="
M39.958191,135.900665 
	C40.038261,132.851959 40.045013,129.870743 40.069717,126.438004 
	C40.567921,125.421844 41.048172,124.857216 41.769157,124.142563 
	C42.370266,127.246040 40.614174,130.996628 45.146133,133.187302 
	C46.375870,133.781723 46.354984,136.963379 46.806503,139.401993 
	C46.704906,139.846420 46.336952,140.031128 46.336952,140.031128 
	C44.828754,139.093155 43.320560,138.155182 41.384712,136.814896 
	C40.626728,136.325150 40.296391,136.237701 39.966053,136.150253 
	C39.966053,136.150253 39.884872,135.968185 39.958191,135.900665 
z"/>
<path fill="#154C6B" opacity="1.000000" stroke="none" 
	d="
M68.377159,132.009171 
	C68.419044,137.714417 68.107101,143.426514 67.392975,149.304535 
	C66.724564,149.202774 66.458344,148.935120 66.090179,147.940781 
	C65.959389,142.150970 65.930534,137.087860 65.901688,132.024734 
	C66.608902,132.021835 67.316124,132.018936 68.377159,132.009171 
z"/>
<path fill="#269DB8" opacity="1.000000" stroke="none" 
	d="
M46.517273,140.296768 
	C46.336952,140.031128 46.704906,139.846420 46.895309,139.765961 
	C48.060352,139.040161 49.034992,138.394836 50.411739,137.454208 
	C52.502979,141.315445 55.815086,142.422577 59.934364,142.013092 
	C59.958096,143.093704 59.981831,144.174301 60.001259,145.660950 
	C55.563835,144.232117 51.130714,142.397263 46.517273,140.296768 
z"/>
<path fill="#2589A5" opacity="1.000000" stroke="none" 
	d="
M65.517838,132.118500 
	C65.930534,137.087860 65.959389,142.150970 65.953423,147.692795 
	C64.847008,147.833466 63.775414,147.495453 62.517841,146.878510 
	C62.891342,144.473938 63.570538,142.371063 63.979733,140.216904 
	C64.482323,137.571060 64.759415,134.882401 65.517838,132.118500 
z"/>
<path fill="#C5DBE2" opacity="1.000000" stroke="none" 
	d="
M35.037529,133.550949 
	C35.679565,133.573563 36.398277,133.929123 37.276062,134.553101 
	C36.661491,134.508987 35.887848,134.196442 35.037529,133.550949 
z"/>
<path fill="#C5DBE2" opacity="1.000000" stroke="none" 
	d="
M40.127823,136.343109 
	C40.296391,136.237701 40.626728,136.325150 41.080841,136.660400 
	C40.899612,136.784134 40.594604,136.660049 40.127823,136.343109 
z"/>
<path fill="#37AD48" opacity="1.000000" stroke="none" 
	d="
M102.997650,160.990295 
	C102.996674,160.996811 102.822960,161.080688 102.822960,161.080688 
	C102.822960,161.080688 103.053299,161.110733 103.008995,161.054047 
	C102.964691,160.997345 102.998627,160.983765 102.997650,160.990295 
z"/>
<path fill="#28ADC8" opacity="1.000000" stroke="none" 
	d="
M89.418159,130.046722 
	C87.041237,128.302429 84.664307,126.558151 82.022720,124.201508 
	C80.482666,122.956711 78.507217,121.462044 78.047997,121.834877 
	C75.492973,123.909340 73.305717,126.436768 70.763237,128.967804 
	C70.362427,129.444412 70.191025,129.762466 70.019623,130.080505 
	C70.019623,130.080505 70.070930,130.015778 70.106400,130.036743 
	C68.894753,129.907623 67.647636,129.757568 66.161270,129.311279 
	C65.922028,129.015060 66.022736,128.544037 66.327194,128.177048 
	C68.809486,125.903587 70.987312,123.997108 73.506683,122.026260 
	C75.882973,120.934273 77.917717,119.906662 80.275314,118.937180 
	C81.033318,119.019501 81.468468,119.043694 81.903618,119.067886 
	C82.086189,119.105865 82.268761,119.143845 82.722008,119.255905 
	C86.076706,123.450180 89.620094,126.586586 95.179268,127.125977 
	C98.866684,127.483749 102.455559,128.857208 106.429520,129.843857 
	C107.017075,129.939941 107.263641,129.968155 107.881638,130.031052 
	C107.226204,131.498871 106.199356,132.931992 104.649612,134.716187 
	C102.341331,136.847610 100.555939,138.627975 98.429443,140.340668 
	C97.292343,139.860580 96.496323,139.448196 96.015686,138.863571 
	C96.824005,136.981216 97.316925,135.271088 97.931602,133.138596 
	C98.561386,133.023727 100.131073,132.737442 101.700760,132.451157 
	C101.678215,131.730957 101.655678,131.010742 101.633133,130.290527 
	C97.561478,130.209259 93.489815,130.127991 89.418159,130.046722 
z"/>
<path fill="#4298B0" opacity="1.000000" stroke="none" 
	d="
M98.770538,140.408356 
	C100.555939,138.627975 102.341331,136.847610 104.476624,135.001938 
	C107.759216,137.074203 110.691917,139.211761 113.725037,141.658142 
	C112.779900,142.362442 111.734344,142.757935 110.356735,143.253876 
	C107.687630,142.928864 105.350571,142.503418 102.416641,141.828949 
	C100.803360,141.189392 99.786949,140.798874 98.770538,140.408356 
z"/>
<path fill="#6791A4" opacity="1.000000" stroke="none" 
	d="
M124.967331,145.596222 
	C123.882111,146.736237 122.830605,147.462753 122.245926,147.866714 
	C120.129585,146.947830 118.047287,146.043732 115.613586,145.100952 
	C115.177048,144.296417 115.091927,143.530579 114.998817,142.380157 
	C115.742905,141.978348 116.494972,141.961105 117.748672,142.241287 
	C118.835747,142.372833 119.421188,142.206940 120.006630,142.041046 
	C122.376030,141.968140 125.378975,140.888046 124.967331,145.596222 
z"/>
<path fill="#AECDD5" opacity="1.000000" stroke="none" 
	d="
M119.863388,141.809860 
	C119.421188,142.206940 118.835747,142.372833 118.121620,142.292068 
	C118.568680,141.889832 119.144417,141.734253 119.863388,141.809860 
z"/>
<path fill="#3BBDD5" opacity="1.000000" stroke="none" 
	d="
M114.345985,130.526184 
	C114.582993,130.711365 114.627777,131.069275 114.672562,131.427185 
	C114.499626,131.184418 114.326691,130.941666 114.345985,130.526184 
z"/>
<path fill="#0B506C" opacity="1.000000" stroke="none" 
	d="
M90.382263,150.984360 
	C90.046318,150.497742 90.063156,150.068634 90.592590,149.326538 
	C94.651398,148.684189 98.197617,148.354843 101.743828,148.025497 
	C101.770836,149.749619 101.797836,151.473740 101.598404,153.715515 
	C101.200020,154.397568 101.071129,154.590714 100.985298,154.812607 
	C96.557884,156.303055 93.845985,153.130112 90.382263,150.984360 
z"/>
<path fill="#106484" opacity="1.000000" stroke="none" 
	d="
M101.163689,154.866074 
	C101.071129,154.590714 101.200020,154.397568 101.521240,154.141052 
	C101.670509,154.048950 101.809410,154.499222 101.760849,154.729782 
	C101.712296,154.960342 101.342079,154.919540 101.163689,154.866074 
z"/>
<path fill="#66A2B7" opacity="1.000000" stroke="none" 
	d="
M136.460785,139.055542 
	C136.899048,139.469681 136.927795,139.851318 136.971634,140.517792 
	C134.950455,140.831421 132.914215,140.860245 130.441101,140.890778 
	C129.865585,140.583008 129.642380,140.356964 129.102707,140.133316 
	C129.398254,139.710953 129.925735,139.369614 130.779327,138.989716 
	C132.754074,138.975128 134.402679,138.999100 136.460785,139.055542 
z"/>
<path fill="#155877" opacity="1.000000" stroke="none" 
	d="
M101.832947,147.614807 
	C98.197617,148.354843 94.651398,148.684189 90.685135,149.016907 
	C90.226715,147.630722 90.188339,146.241150 90.458038,144.456390 
	C90.766113,144.061203 91.156395,144.000061 91.580971,144.002686 
	C95.255623,143.677841 98.505699,143.350372 101.755775,143.022903 
	C101.811203,144.416641 101.866631,145.810394 101.832947,147.614807 
z"/>
<path fill="#106484" opacity="1.000000" stroke="none" 
	d="
M101.866867,142.798355 
	C98.505699,143.350372 95.255623,143.677841 91.581001,143.625870 
	C91.618347,141.307922 92.080231,139.369415 92.565430,137.333069 
	C93.829292,138.019547 94.764793,138.527679 95.700302,139.035812 
	C96.496323,139.448196 97.292343,139.860580 98.429451,140.340668 
	C99.786949,140.798874 100.803360,141.189392 102.009766,141.852219 
	C102.125832,142.274292 102.051888,142.424042 101.866867,142.798355 
z"/>
<path fill="#5FA7BB" opacity="1.000000" stroke="none" 
	d="
M101.393044,123.955643 
	C100.669731,123.590698 100.345848,123.118347 100.006454,122.349701 
	C100.293022,120.315849 100.845024,118.580078 100.857483,116.840446 
	C100.953094,103.489693 100.943840,90.138176 101.253922,76.366852 
	C101.940758,75.890556 102.340836,75.834305 102.740921,75.778053 
	C102.836861,83.224846 102.932800,90.671646 103.068710,98.593124 
	C103.088646,105.848373 103.140945,112.630524 102.992065,119.408249 
	C102.959381,120.896309 102.211174,122.368652 101.393044,123.955643 
z"/>
<path fill="#6CD7EA" opacity="1.000000" stroke="none" 
	d="
M102.775284,75.359085 
	C102.340836,75.834305 101.940758,75.890556 101.234604,75.959198 
	C100.933784,73.058006 100.939041,70.144432 101.283356,67.121399 
	C102.018166,69.654671 102.413910,72.297394 102.775284,75.359085 
z"/>
<path fill="#6CD7EA" opacity="1.000000" stroke="none" 
	d="
M102.886543,62.199135 
	C102.676018,63.029285 102.465485,63.859440 101.957481,64.842209 
	C101.307732,64.093544 100.955444,63.192257 101.161102,62.135048 
	C102.108208,62.052460 102.497375,62.125797 102.886543,62.199135 
z"/>
<path fill="#6791A4" opacity="1.000000" stroke="none" 
	d="
M102.916443,61.903114 
	C102.497375,62.125797 102.108208,62.052460 101.424210,61.954842 
	C101.128136,61.517311 101.126907,61.104057 101.126633,60.381630 
	C101.311378,60.075611 101.495171,60.078770 101.956215,60.099266 
	C102.471100,60.613434 102.708725,61.110264 102.916443,61.903114 
z"/>
<path fill="#6CD7EA" opacity="1.000000" stroke="none" 
	d="
M95.182022,42.917763 
	C95.007050,42.839458 94.997673,42.669228 95.002960,42.243568 
	C95.127609,42.267372 95.237610,42.546600 95.182022,42.917763 
z"/>
<path fill="#1892B0" opacity="1.000000" stroke="none" 
	d="
M126.614449,123.945778 
	C127.018471,123.914986 127.509575,123.965492 127.858215,124.204651 
	C128.410141,124.724800 128.683167,124.891792 129.025925,124.944771 
	C129.025925,124.944771 129.002548,124.975403 129.006958,125.233948 
	C129.011368,125.492500 129.032043,125.974762 128.823029,126.228455 
	C125.937950,125.764671 123.974068,126.619339 122.761810,129.133209 
	C120.793037,127.558662 116.739838,127.501915 118.744286,123.106354 
	C121.417526,123.310150 123.813972,123.643364 126.614449,123.945778 
z"/>
<path fill="#1989A6" opacity="1.000000" stroke="none" 
	d="
M122.863770,129.460892 
	C123.974068,126.619339 125.937950,125.764671 129.166870,126.234543 
	C130.179932,125.973686 130.640106,125.960442 131.100296,125.947205 
	C131.100296,125.947205 131.514282,125.947189 131.707703,126.344307 
	C132.297577,128.829132 132.694031,130.916840 133.090485,133.004547 
	C132.388123,133.781006 131.685745,134.557465 130.948822,135.699249 
	C128.264740,133.972580 125.615234,131.880585 122.863770,129.460892 
z"/>
<path fill="#1989A6" opacity="1.000000" stroke="none" 
	d="
M130.905060,136.389709 
	C131.143723,136.697449 131.355545,137.331512 131.304810,137.990250 
	C130.987564,137.581955 130.932907,137.149002 130.905060,136.389709 
z"/>
<path fill="#91CDD9" opacity="1.000000" stroke="none" 
	d="
M133.300507,133.207642 
	C132.694031,130.916840 132.297577,128.829132 131.914459,126.334297 
	C132.103699,125.917213 132.279602,125.907265 132.707672,125.817482 
	C133.718048,125.768486 134.476273,125.799316 135.604004,125.734909 
	C136.896500,125.921822 138.441330,125.976326 138.641495,126.523094 
	C139.935669,130.058411 140.936539,133.701096 142.088165,137.665375 
	C140.100586,137.977631 137.812729,138.478745 136.098053,137.706772 
	C134.844849,137.142563 134.345764,134.903320 133.300507,133.207642 
z"/>
<path fill="#137896" opacity="1.000000" stroke="none" 
	d="
M79.952461,118.879059 
	C77.917717,119.906662 75.882973,120.934273 73.326553,121.761383 
	C72.212166,121.370651 71.619461,121.180420 71.026756,120.990189 
	C71.021706,120.796394 71.016655,120.602592 70.978149,120.119110 
	C71.183952,117.470985 71.423210,115.112541 72.120171,112.369987 
	C75.008675,113.302788 77.439484,114.619698 79.870285,115.936615 
	C79.903244,116.394722 79.936203,116.852837 79.974915,117.875153 
	C79.980675,118.439362 79.952461,118.879059 79.952461,118.879059 
z"/>
<path fill="#0A3D5D" opacity="1.000000" stroke="none" 
	d="
M70.615891,121.013382 
	C71.619461,121.180420 72.212166,121.370651 72.985001,121.825752 
	C70.987312,123.997108 68.809486,125.903587 66.318153,127.936386 
	C66.026085,126.024460 66.047523,123.986214 66.101730,121.517563 
	C67.491348,121.070290 68.848190,121.053429 70.615891,121.013382 
z"/>
<path fill="#1989A6" opacity="1.000000" stroke="none" 
	d="
M79.905777,115.509811 
	C77.439484,114.619698 75.008675,113.302788 72.186386,111.956268 
	C71.794907,111.926674 71.632874,111.625641 71.602753,111.458328 
	C71.734833,108.834625 71.897049,106.378227 72.474976,103.464722 
	C74.210434,104.344063 75.524345,105.686333 76.851830,107.015030 
	C77.830177,107.994263 78.826233,108.955803 79.814400,109.925224 
	C79.856682,111.644485 79.898972,113.363747 79.905777,115.509811 
z"/>
<path fill="#1B9EBA" opacity="1.000000" stroke="none" 
	d="
M79.865479,109.694359 
	C78.826233,108.955803 77.830177,107.994263 76.851830,107.015030 
	C75.524345,105.686333 74.210434,104.344063 72.507736,103.011208 
	C72.097656,99.343948 72.070541,95.673103 72.391754,91.555840 
	C73.829941,91.388893 74.919792,91.668358 76.308510,92.095467 
	C77.668518,92.441544 78.729652,92.639977 79.860405,93.299309 
	C79.947815,96.504379 79.965614,99.248550 79.983414,101.992722 
	C79.968788,104.035332 79.954170,106.077934 79.958572,108.557556 
	C79.977592,108.994560 79.916550,109.463493 79.865479,109.694359 
z"/>
<path fill="#4CBED4" opacity="1.000000" stroke="none" 
	d="
M79.790794,92.838409 
	C78.729652,92.639977 77.668518,92.441544 76.306000,91.656105 
	C75.327240,87.144310 77.999290,82.014732 72.021759,79.996422 
	C72.016945,79.247894 72.012131,78.499374 72.014496,77.376640 
	C73.321381,75.903595 74.621101,74.804764 75.986275,73.380783 
	C76.484993,73.041298 76.918259,73.026939 77.676994,73.007866 
	C78.996216,74.553703 80.444481,75.991203 80.865578,77.684196 
	C81.362030,79.680084 80.969284,81.897148 80.947647,84.464279 
	C80.597473,86.988449 80.261726,89.066643 79.901840,91.777954 
	C79.877708,92.411072 79.790794,92.838409 79.790794,92.838409 
z"/>
<path fill="#4DB4CA" opacity="1.000000" stroke="none" 
	d="
M72.010979,80.455490 
	C77.999290,82.014732 75.327240,87.144310 76.007126,91.508461 
	C74.919792,91.668358 73.829941,91.388893 72.402306,91.101051 
	C72.043091,87.699974 72.021652,84.307266 72.010979,80.455490 
z"/>
<path fill="#19A4C0" opacity="1.000000" stroke="none" 
	d="
M59.960247,141.557373 
	C55.815086,142.422577 52.502979,141.315445 50.467873,137.084961 
	C50.153122,133.645737 50.184345,130.280457 50.349350,126.569885 
	C56.151585,125.760269 54.452045,128.888306 53.133698,131.726746 
	C55.061886,135.118790 57.159206,133.070892 59.548058,132.005463 
	C59.918880,134.999817 59.952507,138.050751 59.960247,141.557373 
z"/>
<path fill="#19A4C0" opacity="1.000000" stroke="none" 
	d="
M50.729836,123.959381 
	C50.064972,122.866035 49.772655,121.627861 49.675591,120.188553 
	C50.281357,121.263130 50.691872,122.538841 50.729836,123.959381 
z"/>
<path fill="#265A76" opacity="1.000000" stroke="none" 
	d="
M45.592846,125.720490 
	C45.682014,126.839912 45.578037,127.693687 45.474056,128.547470 
	C44.968784,128.305588 44.463509,128.063705 43.958237,127.821815 
	C44.438721,127.032829 44.919209,126.243835 45.592846,125.720490 
z"/>
<path fill="#1989A6" opacity="1.000000" stroke="none" 
	d="
M80.275314,118.937180 
	C79.952461,118.879059 79.980675,118.439362 79.990929,118.219299 
	C80.547325,118.180542 81.093475,118.361855 81.771622,118.805527 
	C81.468468,119.043694 81.033318,119.019501 80.275314,118.937180 
z"/>
<path fill="#137896" opacity="1.000000" stroke="none" 
	d="
M79.860405,93.299309 
	C79.790794,92.838409 79.877708,92.411072 79.915588,92.196198 
	C81.390930,92.647362 82.828400,93.313385 84.622177,93.979652 
	C84.984772,95.053955 84.991058,96.128021 84.998825,97.604706 
	C85.220551,101.065414 83.647263,102.221863 80.377060,101.994598 
	C79.965614,99.248550 79.947815,96.504379 79.860405,93.299309 
z"/>
<path fill="#4095AE" opacity="1.000000" stroke="none" 
	d="
M130.903656,125.715958 
	C130.640106,125.960442 130.179932,125.973686 129.375885,125.980850 
	C129.032043,125.974762 129.011368,125.492500 128.999084,125.251541 
	C129.560211,125.168633 130.133606,125.326675 130.903656,125.715958 
z"/>
<path fill="#6393A8" opacity="1.000000" stroke="none" 
	d="
M129.012619,124.702377 
	C128.683167,124.891792 128.410141,124.724800 128.104538,124.220772 
	C128.002228,123.997742 128.484329,123.992950 128.724854,123.984314 
	C128.965363,123.975677 128.999313,124.459991 129.012619,124.702377 
z"/>
<path fill="#1D829F" opacity="1.000000" stroke="none" 
	d="
M96.015686,138.863571 
	C94.764793,138.527679 93.829292,138.019547 92.565430,137.333069 
	C92.080231,139.369415 91.618347,141.307922 91.156425,143.623245 
	C91.156395,144.000061 90.766113,144.061203 90.568893,144.051773 
	C90.150002,139.675797 89.928337,135.309235 89.562408,130.494705 
	C93.489815,130.127991 97.561478,130.209259 101.633133,130.290527 
	C101.655678,131.010742 101.678215,131.730957 101.700760,132.451157 
	C100.131073,132.737442 98.561386,133.023727 97.931602,133.138596 
	C97.316925,135.271088 96.824005,136.981216 96.015686,138.863571 
z"/>
<path fill="#2589A5" opacity="1.000000" stroke="none" 
	d="
M76.640396,139.201935 
	C76.564003,136.204224 74.087471,132.758301 78.070587,131.175934 
	C79.375122,130.657684 82.219437,131.020187 82.619339,131.834534 
	C83.490196,133.607895 83.677536,136.024704 83.253540,137.985992 
	C83.064064,138.862518 80.770721,139.415466 79.349861,139.839279 
	C78.638725,140.051392 77.742767,139.643890 76.640396,139.201935 
z"/>
<path fill="#4298B0" opacity="1.000000" stroke="none" 
	d="
M70.992645,128.809235 
	C73.305717,126.436768 75.492973,123.909340 78.047997,121.834877 
	C78.507217,121.462044 80.482666,122.956711 81.858719,123.924568 
	C79.946922,124.983116 77.822800,125.497108 75.956306,126.493637 
	C74.382133,127.334084 73.107048,128.734741 71.349640,129.642883 
	C70.997353,129.201950 70.995003,129.005600 70.992645,128.809235 
z"/>
<path fill="#1C728F" opacity="1.000000" stroke="none" 
	d="
M70.763237,128.967804 
	C70.995003,129.005600 70.997353,129.201950 71.010849,129.692596 
	C70.857803,130.032501 70.693619,130.078125 70.274536,130.102127 
	C70.191025,129.762466 70.362427,129.444412 70.763237,128.967804 
z"/>
</svg>